<?xml version="1.0" encoding="utf-8"?><svg viewBox="0 0 32 32" xmlns="http://www.w3.org/2000/svg" xmlns:xlink="http://www.w3.org/1999/xlink"><style>:root>svg{display:none}:root>svg:target{display:block}</style><svg viewBox="0 0 4.574 8" id="arrow" xmlns="http://www.w3.org/2000/svg"><path d="M3.195 3.999L.167.974a.569.569 0 010-.807.577.577 0 01.81 0l3.43 3.427a.571.571 0 01.017.788L.98 7.834a.572.572 0 11-.81-.807z"/></svg><svg viewBox="0 0 16 16" id="book" xmlns="http://www.w3.org/2000/svg"><defs><style>.aba{fill:#f7f3d682}</style></defs><path class="aba" d="M12.667 1.333H12V.667a.667.667 0 10-1.333 0v.667H5.333V.667A.667.667 0 004 .667v.667h-.667A3.337 3.337 0 000 4.667v8A3.337 3.337 0 003.333 16h9.333A3.337 3.337 0 0016 12.667v-8a3.337 3.337 0 00-3.333-3.334zM1.333 4.667a2 2 0 012-2h9.333a2 2 0 012 2v.667H1.333zm11.333 10H3.333a2 2 0 01-2-2v-6h13.334v6a2 2 0 01-2 2z"/><circle class="aba" cx="1" cy="1" r="1" transform="translate(7 9)"/><circle class="aba" cx="1" cy="1" r="1" transform="translate(3.667 9)"/><circle class="aba" cx="1" cy="1" r="1" transform="translate(10.333 9)"/></svg><svg viewBox="0 0 70.893 64" id="branch" xmlns="http://www.w3.org/2000/svg"><defs><style>.aca{fill:#d1e8b2}</style></defs><path class="aca" d="M15.072 17.143H8.733a1 1 0 00-1.005 1.005v6.34a1 1 0 001.005 1.005h6.339a1 1 0 001.005-1.005v-6.34a1 1 0 00-1.005-1.005zm-1.005 6.34H9.738v-4.33h4.329zM15.072 5.401H8.733a1 1 0 00-1.005 1.005v6.34a1 1 0 001.005 1.005h6.339a1 1 0 001.005-1.005v-6.34a1 1 0 00-1.005-1.005zm-1.005 6.34H9.738V7.412h4.329zM15.072 28.884H8.733a1 1 0 00-1.005 1v6.34a1 1 0 001.005 1.005h6.339a1 1 0 001.005-1.005v-6.34a1 1 0 00-1.005-1zm-1.005 6.34H9.738v-4.33h4.329zM15.072 40.625H8.733a1 1 0 00-1.005 1.005v6.339a1 1 0 001.005 1.005h6.339a1 1 0 001.005-1.005V41.63a1 1 0 00-1.005-1.005zm-1.005 6.339H9.738v-4.328h4.329z"/><path class="aca" d="M69.888 35.405a1 1 0 001.005-1.005V20.033a1 1 0 00-1.005-1H57.906V1.005A1 1 0 0056.901 0H4.488a1 1 0 00-1.005 1.005V57.08H1.005A1 1 0 000 58.085v4.909a1 1 0 001.005 1.005h68.883a1 1 0 001.005-1.005v-4.909a1 1 0 00-1.005-1.005h-1.341V35.405zM20.323 2.01h35.573v17.023H29.789a1 1 0 00-1.005 1V34.4a1 1 0 001.005 1.005h3.466v12.564a1.005 1.005 0 102.01 0V35.405h31.272v1.465l-15.46 5.726a1.005 1.005 0 00.349 1.948.99.99 0 00.349-.063l14.762-5.467v4.839l-8.3 3.18a1.005 1.005 0 10.72 1.877l7.578-2.9v4.437l-4.344 1.712a1.006 1.006 0 00.737 1.871l3.607-1.421v4.476H20.323zm-14.83 0h12.82v55.07H5.493zm63.39 57.08v2.9H2.011v-2.9zm-38.089-25.7V21.039h38.089v12.356z"/><path class="aca" d="M34.261 50.074a1 1 0 00-1.005 1.005v1.774a1.005 1.005 0 102.01 0v-1.774a1 1 0 00-1.005-1.005zM47.674 43.861l-1.876.69a1.005 1.005 0 00.349 1.948.992.992 0 00.351-.063l1.876-.694a1.005 1.005 0 10-.7-1.885zM34.939 14.695h6.34a1 1 0 001.005-1.005V7.35a1 1 0 00-1.005-1.005h-6.34a1 1 0 00-1 1.005v6.34a1 1 0 001 1.005zm1.005-6.34h4.329v4.329h-4.328zM31.549 13.69V7.35a1 1 0 00-1.005-1.005h-6.34a1 1 0 00-1.005 1.005v6.34a1 1 0 001.005 1.005h6.34a1 1 0 001.005-1.005zm-2.01-1.005h-4.33v-4.33h4.329zM45.676 14.695h6.34a1 1 0 001.005-1.005V7.35a1 1 0 00-1.005-1.005h-6.34a1 1 0 00-1.005 1.005v6.34a1 1 0 001.005 1.005zm1.005-6.34h4.329v4.329h-4.329z"/></svg><svg viewBox="0 0 4.574 8" id="btn-arrow" xmlns="http://www.w3.org/2000/svg"><path d="M3.195 3.999L.167.974a.569.569 0 010-.807.577.577 0 01.81 0l3.43 3.427a.571.571 0 01.017.788L.98 7.834a.572.572 0 11-.81-.807z"/></svg><svg viewBox="0 0 64 64" id="client" xmlns="http://www.w3.org/2000/svg"><defs><style>.aea{fill:#d1e8b2}</style></defs><path class="aea" d="M40.178 34.3a13.439 13.439 0 019.386-3.754 12.906 12.906 0 0111.982 7.46 1.28 1.28 0 102.346-1.026 15.042 15.042 0 00-9.4-8.24 9.125 9.125 0 003.257-7.07c0-4.893-3.671-8.875-8.184-8.875a8.247 8.247 0 00-7.651 5.752 15.826 15.826 0 00-4.988-2.607 9.124 9.124 0 003.259-7.071C40.187 3.982 36.516 0 32 0s-8.184 3.981-8.184 8.875a9.125 9.125 0 003.258 7.07 15.87 15.87 0 00-4.993 2.609 8.247 8.247 0 00-7.648-5.754c-4.512 0-8.184 3.981-8.184 8.875a9.125 9.125 0 003.257 7.07 15.042 15.042 0 00-9.4 8.24 1.28 1.28 0 102.347 1.025 12.906 12.906 0 0111.982-7.46 13.425 13.425 0 019.393 3.76 9.107 9.107 0 003.247 6.859 15.866 15.866 0 00-4.991 2.609 8.247 8.247 0 00-7.651-5.753c-4.512 0-8.184 3.981-8.184 8.875a9.124 9.124 0 003.259 7.071 15.052 15.052 0 00-9.4 8.235 1.28 1.28 0 102.344 1.028 12.913 12.913 0 0111.983-7.458 12.912 12.912 0 0111.983 7.458 1.28 1.28 0 102.344-1.027 15.05 15.05 0 00-9.4-8.237 9.124 9.124 0 003.255-7.07c0-.057-.007-.112-.008-.168a13.613 13.613 0 0118.782 0c0 .057-.008.112-.008.17a9.124 9.124 0 003.257 7.069 15.05 15.05 0 00-9.4 8.237 1.28 1.28 0 002.344 1.027 12.912 12.912 0 0111.983-7.458 12.913 12.913 0 0111.983 7.458 1.28 1.28 0 002.344-1.028 15.052 15.052 0 00-9.4-8.235 9.124 9.124 0 003.257-7.072c0-4.893-3.671-8.875-8.184-8.875a8.247 8.247 0 00-7.65 5.751 15.826 15.826 0 00-4.986-2.607 9.107 9.107 0 003.247-6.869zM14.433 53.215c-3.1 0-5.624-2.833-5.624-6.315s2.523-6.315 5.624-6.315a5.922 5.922 0 015.593 5.655c.021.236.031.446.031.66 0 3.482-2.523 6.315-5.624 6.315zm35.134-12.63c3.1 0 5.624 2.833 5.624 6.315s-2.523 6.315-5.624 6.315-5.624-2.833-5.624-6.315c0-.213.01-.423.028-.63.297-3.202 2.693-5.685 5.596-5.685zm0-25.225c3.1 0 5.624 2.833 5.624 6.315s-2.523 6.315-5.624 6.315-5.624-2.833-5.624-6.315c0-.212.01-.421.028-.627.297-3.205 2.693-5.688 5.596-5.688zM32 2.56c3.1 0 5.625 2.833 5.625 6.315S35.1 15.19 32 15.19s-5.624-2.833-5.624-6.315S28.9 2.56 32 2.56zm0 15.19a13.442 13.442 0 019.391 3.758c0 .056-.008.111-.008.168a9.125 9.125 0 003.257 7.07 15.838 15.838 0 00-4.887 2.525A8.281 8.281 0 0032 25.226a8.281 8.281 0 00-7.751 6.047 15.819 15.819 0 00-4.892-2.529 9.125 9.125 0 003.257-7.069c0-.056-.007-.11-.008-.166A13.461 13.461 0 0132 17.75zm-17.567-2.39a5.922 5.922 0 015.593 5.656c.021.238.031.447.031.659 0 3.482-2.523 6.315-5.624 6.315s-5.624-2.833-5.624-6.315 2.523-6.315 5.624-6.315zm17.594 25.053c-3.14-.016-5.649-2.841-5.649-6.313S28.9 27.785 32 27.785s5.625 2.833 5.625 6.315-2.51 6.3-5.6 6.313z"/></svg><svg viewBox="0 0 48 48" id="clock" xmlns="http://www.w3.org/2000/svg"><defs><style>.afa{fill:#7b879b}</style></defs><path class="afa" d="M24 0a24 24 0 1024 24A24 24 0 0024 0zm0 44a20 20 0 1120-20 20 20 0 01-20 20z"/><path class="afa" d="M23.122 13.31a1.654 1.654 0 00-1.654 1.654v7.155l-5.577 3.491a1.658 1.658 0 001.757 2.812l6.353-3.97a1.654 1.654 0 00.776-1.419v-8.069a1.654 1.654 0 00-1.655-1.654z"/></svg><svg viewBox="0 0 64 64" id="country" xmlns="http://www.w3.org/2000/svg"><defs><style>.aga{fill:#d1e8b2}</style></defs><path class="aga" d="M22.094 22.851zM13.308 40.162l-.012.055zM26.239 28.818l-.011.052v.008zM29.533 48.267v-.005zM49.684 31.158a5.053 5.053 0 10-5.053 5.053 5.052 5.052 0 005.053-5.053zm-7.579 0a2.526 2.526 0 112.526 2.526 2.529 2.529 0 01-2.526-2.526z"/><path class="aga" d="M32 0a31.821 31.821 0 00-13.489 2.995A11.011 11.011 0 0010.947 0 10.856 10.856 0 000 10.737c0 2.227 1.363 5.032 3.046 7.655A32 32 0 1032 0zM10.947 2.526a8.317 8.317 0 018.421 8.211c0 4.534-8.421 13.684-8.421 13.684s-8.421-9.15-8.421-13.684a8.318 8.318 0 018.421-8.211zM4.73 20.838a65.663 65.663 0 004.359 5.293l1.859 2.02 1.859-2.02c1.518-1.649 9.089-10.141 9.089-15.395a10.514 10.514 0 00-1.7-5.728 29.267 29.267 0 016.413-1.98l-.685 1.231a3.872 3.872 0 00-.457 1.878 4.016 4.016 0 00.691 2.314l1.921 2.7a2.652 2.652 0 01.338.767 3.741 3.741 0 01.147.98 1.846 1.846 0 01-.025.324l-.5 2.717a2.435 2.435 0 01-1.12 1.444l-3.378 1.559a2.953 2.953 0 00-1.443 3.914l1.426 3.1a3.342 3.342 0 01.216.74 5.366 5.366 0 01.088.952 3.24 3.24 0 01-.062.674l-.017.068-.388 1.686a2.987 2.987 0 01-1.226 1.6L19.634 33a1.644 1.644 0 01-.726.146 1.8 1.8 0 01-.9-.213l-2.041-1.315a4.047 4.047 0 00-2.173-.594 3.986 3.986 0 00-2.021.516l-2.045 1.21a2.73 2.73 0 00-.957.936 2.479 2.479 0 00-.356 1.276 2.632 2.632 0 00.761 1.825l1.144 1.194a1.909 1.909 0 01.359.63 2.587 2.587 0 01.159.846 1.305 1.305 0 01-.023.259l-.228 1.093a4.826 4.826 0 01-1.205 2.09l-1.035.928a26.614 26.614 0 00-2.214 2.3 29.415 29.415 0 01-1.4-25.284zm2.8 27.567c.115-.141.237-.295.368-.455a24.2 24.2 0 012.14-2.25l1.034-.928a7.251 7.251 0 001.992-3.453l.23-1.1a3.839 3.839 0 00.074-.765 5.053 5.053 0 00-.314-1.715 4.319 4.319 0 00-.906-1.509L11 35.033l-.045-.061.061-.05 2.045-1.21a1.527 1.527 0 01.73-.162 1.6 1.6 0 01.806.192l2.04 1.314a4.237 4.237 0 002.269.616 4.106 4.106 0 001.91-.44l2.5-1.324a5.444 5.444 0 002.5-3.264l.408-1.772a5.721 5.721 0 00.123-1.223 7.883 7.883 0 00-.131-1.412 5.719 5.719 0 00-.4-1.335l-1.427-3.107-.036-.168a.43.43 0 01.245-.391l3.379-1.559a4.905 4.905 0 002.544-3.283l.5-2.716a4.383 4.383 0 00.067-.775 6.185 6.185 0 00-.245-1.675 5.079 5.079 0 00-.709-1.537l-1.92-2.7a1.561 1.561 0 01-.221-.845 1.406 1.406 0 01.138-.649l1.594-2.865c.755-.061 1.512-.1 2.28-.1A29.517 29.517 0 0161.094 27.3l-1.128-.627a5.765 5.765 0 00-1.5-.548 7.357 7.357 0 00-1.6-.187 4.927 4.927 0 00-.861.07l-.233.041A12.628 12.628 0 0032 32c0 4.257 4.179 10.41 7.4 14.52l-1.928 2.168a2.208 2.208 0 01-.745.49 2.524 2.524 0 01-.931.221h-.08l-3.683-.284-.093-.02v-.013l.009-.082v-.009l.657-2.189a3.229 3.229 0 00.132-.925 3.7 3.7 0 00-.419-1.691 3.4 3.4 0 00-1.2-1.325l-1.477-.923a3.05 3.05 0 00-1.623-.459 3.117 3.117 0 00-2.5 1.228l-4.477 5.97a2.952 2.952 0 00.589 4.126l1.638 1.228a1.1 1.1 0 01.31.417 1.518 1.518 0 01.142.616.888.888 0 01-.029.234l-1.312 4.555A29.61 29.61 0 017.527 48.405zm27-16.4a10.105 10.105 0 0120.211 0c0 5.579-10.105 16.841-10.105 16.841S34.526 37.58 34.526 32zM32 61.474a29.419 29.419 0 01-7.2-.893L26.129 56a3.383 3.383 0 00.129-.936 4.022 4.022 0 00-.375-1.674 3.6 3.6 0 00-1.089-1.38l-1.637-1.228a.418.418 0 01-.166-.34.4.4 0 01.082-.248l4.478-5.971a.6.6 0 01.475-.216.537.537 0 01.284.075l1.476.923a.9.9 0 01.294.345 1.2 1.2 0 01.136.528.714.714 0 01-.026.2l-.654 2.183a2.773 2.773 0 00-.124.817 2.532 2.532 0 00.7 1.757 2.662 2.662 0 001.734.8l3.683.284c.092.007.183.01.274.01a4.979 4.979 0 001.927-.429 4.652 4.652 0 001.633-1.131l1.649-1.856a74.517 74.517 0 001.741 2.018l1.88 2.1 1.88-2.1c1.8-2 10.752-12.3 10.752-18.528a12.572 12.572 0 00-.513-3.535h.112a4.887 4.887 0 011.043.123 3.337 3.337 0 01.834.293l2.687 1.493c.03.541.048 1.083.048 1.629A29.507 29.507 0 0132 61.474z"/><path class="aga" d="M15.368 10.105a4.211 4.211 0 10-4.211 4.21 4.21 4.21 0 004.211-4.21zm-5.895 0a1.684 1.684 0 111.683 1.684 1.685 1.685 0 01-1.683-1.684z"/></svg><svg viewBox="0 0 32 32" id="dental" xmlns="http://www.w3.org/2000/svg"><defs><style>.aha{fill:#d2cee3}</style></defs><path class="aha" d="M3.959 15.025c.141 0 .284-.007.426-.02a6.079 6.079 0 001.758-.424 3.345 3.345 0 012.659-.021 5.524 5.524 0 003.183.374 3.484 3.484 0 002.984-2.682 7.217 7.217 0 00-1-4.377 3.069 3.069 0 01-.394-1.469 16.326 16.326 0 00-.365-3.317 4.026 4.026 0 00-2.051-2.98 1.321 1.321 0 00-1.256.1c-1.343.882-1.494 4.4-1.506 4.816a.721.721 0 01-.709.677h-.276a.724.724 0 01-.71-.69c-.012-.4-.163-3.921-1.506-4.8A1.334 1.334 0 003.913.12a4.034 4.034 0 00-2.024 2.969 16.35 16.35 0 00-.359 3.325 2.9 2.9 0 01-.555 1.675 5.36 5.36 0 00-.974 3.254 3.7 3.7 0 00.585 2.046 4.059 4.059 0 003.373 1.636zM1.627 8.549a3.767 3.767 0 00.663-1.634 3.894 3.894 0 00.038-.485 15.547 15.547 0 01.34-3.16A3.376 3.376 0 014.234.853a.518.518 0 01.523.029c.753.494 1.1 2.814 1.146 4.148a1.513 1.513 0 001.508 1.476h.276a1.509 1.509 0 001.508-1.464c.043-1.346.392-3.665 1.147-4.161a.5.5 0 01.5-.041 3.364 3.364 0 011.592 2.427 15.5 15.5 0 01.341 3.15 3.869 3.869 0 00.5 1.852 6.387 6.387 0 01.914 3.831 2.714 2.714 0 01-2.355 2.049 4.671 4.671 0 01-2.728-.328 4.134 4.134 0 00-1.592-.328 4.4 4.4 0 00-1.675.349 5.289 5.289 0 01-1.531.368 3.371 3.371 0 01-3.057-1.263 2.942 2.942 0 01-.452-1.624 4.567 4.567 0 01.828-2.774zM20.926 15.025c.141 0 .284-.007.426-.02a6.079 6.079 0 001.758-.424 3.346 3.346 0 012.659-.021 5.524 5.524 0 003.183.374 3.484 3.484 0 002.984-2.682 7.218 7.218 0 00-1-4.377 3.067 3.067 0 01-.394-1.469 16.327 16.327 0 00-.365-3.317 4.028 4.028 0 00-2.051-2.98 1.321 1.321 0 00-1.256.1c-1.343.882-1.493 4.4-1.506 4.815a.721.721 0 01-.709.677h-.276a.724.724 0 01-.71-.69c-.012-.4-.163-3.921-1.506-4.8A1.334 1.334 0 0020.88.119a4.032 4.032 0 00-2.024 2.97 16.317 16.317 0 00-.36 3.325 3.05 3.05 0 01-.03.383 2.964 2.964 0 01-.521 1.292 5.36 5.36 0 00-.974 3.254 3.706 3.706 0 00.585 2.046 4.057 4.057 0 003.37 1.636zm-2.332-6.476a3.767 3.767 0 00.664-1.635 3.912 3.912 0 00.038-.484 15.482 15.482 0 01.34-3.16A3.373 3.373 0 0121.201.853a.517.517 0 01.523.029c.753.494 1.1 2.814 1.146 4.148a1.513 1.513 0 001.508 1.476h.276a1.51 1.51 0 001.508-1.464c.043-1.346.392-3.665 1.146-4.16a.5.5 0 01.5-.041 3.365 3.365 0 011.591 2.426 15.5 15.5 0 01.341 3.15 3.863 3.863 0 00.5 1.852 6.39 6.39 0 01.914 3.831 2.714 2.714 0 01-2.348 2.048 4.673 4.673 0 01-2.728-.328 4.129 4.129 0 00-1.592-.328 4.4 4.4 0 00-1.675.349 5.289 5.289 0 01-1.531.368 3.369 3.369 0 01-3.056-1.263 2.947 2.947 0 01-.453-1.624 4.567 4.567 0 01.823-2.773zM30.5 25.197a2.964 2.964 0 01.524-1.285 5.36 5.36 0 00.974-3.254 3.7 3.7 0 00-.585-2.046 4.137 4.137 0 00-3.8-1.618 6.079 6.079 0 00-1.758.424 3.346 3.346 0 01-2.659.021 5.528 5.528 0 00-3.183-.374 3.482 3.482 0 00-2.983 2.682 7.213 7.213 0 001 4.377 3.07 3.07 0 01.394 1.47 16.326 16.326 0 00.36 3.315 4.026 4.026 0 002.051 2.98 1.5 1.5 0 00.55.111 1.269 1.269 0 00.706-.215c1.343-.882 1.494-4.4 1.506-4.816a.721.721 0 01.709-.677h.276a.724.724 0 01.71.69c.012.4.163 3.921 1.506 4.8a1.333 1.333 0 001.283.092 4.034 4.034 0 002.025-2.972 16.351 16.351 0 00.359-3.325 2.972 2.972 0 01.035-.38zm-.792-.113a3.9 3.9 0 00-.038.485 15.547 15.547 0 01-.34 3.16 3.376 3.376 0 01-1.566 2.417.515.515 0 01-.523-.029c-.753-.494-1.1-2.814-1.146-4.148a1.513 1.513 0 00-1.508-1.476h-.276a1.509 1.509 0 00-1.508 1.464c-.043 1.346-.392 3.665-1.147 4.161a.5.5 0 01-.5.041 3.364 3.364 0 01-1.592-2.426 15.5 15.5 0 01-.341-3.15 3.871 3.871 0 00-.5-1.853 6.386 6.386 0 01-.914-3.831 2.713 2.713 0 012.355-2.048 4.359 4.359 0 01.818-.078 4.961 4.961 0 011.91.406 4.112 4.112 0 003.267-.02 5.289 5.289 0 011.531-.368 3.367 3.367 0 013.054 1.262 2.942 2.942 0 01.452 1.624 4.567 4.567 0 01-.826 2.773 3.767 3.767 0 00-.661 1.634zM1.462 25.594a16.326 16.326 0 00.36 3.315 4.028 4.028 0 002.051 2.98 1.5 1.5 0 00.55.111 1.27 1.27 0 00.706-.215c1.343-.882 1.493-4.4 1.506-4.815a.721.721 0 01.709-.677h.276a.724.724 0 01.71.69c.012.4.163 3.921 1.506 4.8a1.333 1.333 0 001.283.092 4.032 4.032 0 002.024-2.972 16.317 16.317 0 00.36-3.325 2.9 2.9 0 01.554-1.669 5.36 5.36 0 00.977-3.251 3.706 3.706 0 00-.585-2.046 4.136 4.136 0 00-3.8-1.618 6.079 6.079 0 00-1.758.424 3.345 3.345 0 01-2.659.021 5.528 5.528 0 00-3.183-.374 3.483 3.483 0 00-2.984 2.682 7.218 7.218 0 001 4.377 3.068 3.068 0 01.397 1.47zm-.613-5.7a2.714 2.714 0 012.348-2.048 4.345 4.345 0 01.819-.078 4.961 4.961 0 011.909.406 4.111 4.111 0 003.267-.02 5.289 5.289 0 011.531-.368 3.368 3.368 0 013.056 1.263 2.947 2.947 0 01.453 1.624 4.567 4.567 0 01-.826 2.773 3.767 3.767 0 00-.663 1.634 3.893 3.893 0 00-.039.491 15.482 15.482 0 01-.34 3.16 3.373 3.373 0 01-1.565 2.417.515.515 0 01-.523-.029c-.753-.494-1.1-2.814-1.146-4.148a1.513 1.513 0 00-1.508-1.476h-.276a1.51 1.51 0 00-1.512 1.462c-.043 1.346-.392 3.665-1.146 4.16a.5.5 0 01-.5.041 3.365 3.365 0 01-1.591-2.426 15.5 15.5 0 01-.341-3.15 3.865 3.865 0 00-.5-1.853 6.39 6.39 0 01-.907-3.831z"/></svg><svg viewBox="0 0 48.372 56" id="dental-1" xmlns="http://www.w3.org/2000/svg"><defs><style>.aia{fill:##8cc63f}</style></defs><path class="aia" d="M8.846 32.046a6.8 6.8 0 002.546.531 51.328 51.328 0 003.347 11.764 45.645 45.645 0 003.825 7.264l.029.046a64.914 64.914 0 001.512 2.248 4.933 4.933 0 008.092-.022 49.674 49.674 0 005.283-9.537 51.311 51.311 0 003.346-11.76h.062a7.347 7.347 0 002.637-.535c4.734-1.977 7.245-8.821 7.9-10.872 1.823-5.692.979-11.24-2.316-15.222C41.504 1.589 34.975-.72 28.865.2a17.586 17.586 0 00-4.68 1.412A17.519 17.519 0 0019.509.2C13.399-.721 6.867 1.589 3.258 5.951-.037 9.933-.88 15.482.942 21.173c.659 2.052 3.17 8.896 7.904 10.873zm22.769 10.243a1.245 1.245 0 00-.277.027l-13.463 2.946c-.286-.6-.567-1.22-.833-1.868-.05-.121-.094-.241-.142-.362l15.462-2.77c-.233.672-.487 1.35-.747 2.027zm-2.34 5.109l-9.071 2.14a46.728 46.728 0 01-1.16-1.984l11.4-2.5q-.541 1.175-1.169 2.344zm3.911-9.786a1.257 1.257 0 00-.225.017l-16.957 3.036q-.4-1.145-.743-2.277l18.451-2.8a51.55 51.55 0 01-.526 2.024zm-9.042 15.9a2.453 2.453 0 01-2-1.044 56.17 56.17 0 01-.495-.713l5.895-1.39c-.438.694-.9 1.39-1.387 2.093a2.454 2.454 0 01-2.013 1.054zm10.095-20.518l-19.638 2.977q-.415-1.7-.694-3.4h.3c3.268-.011 6.647-.022 9.959.029h.038c3.312-.051 6.69-.04 9.959-.029h.149c-.023.141-.049.283-.073.423zM5.175 7.538c3.024-3.655 8.765-5.661 13.964-4.876a15.172 15.172 0 014.493 1.43c.024.012.049.017.073.027.04.017.08.033.121.045.012 0 .023.01.035.013a1.222 1.222 0 00.176.118 16.4 16.4 0 014.938 4.017 1.244 1.244 0 101.92-1.583 18.854 18.854 0 00-3.9-3.547 14.609 14.609 0 012.24-.521c5.2-.784 10.938 1.221 13.962 4.876 2.743 3.315 3.422 8.009 1.863 12.876-1.185 3.699-3.515 8.093-6.495 9.337a4.307 4.307 0 01-1.665.343h-.008l-2.717-.008c-3.273-.011-6.657-.021-9.986.028-3.329-.05-6.712-.039-9.986-.028l-2.722.007h-.008a4.318 4.318 0 01-1.665-.343c-2.98-1.244-5.307-5.638-6.491-9.335-1.563-4.867-.884-9.56 1.858-12.876z"/></svg><svg viewBox="0 0 35.138 60.25" id="dental-2" xmlns="http://www.w3.org/2000/svg"><defs><style>.aja{fill:##8cc63f}</style></defs><path class="aja" d="M6.075 40.116a.861.861 0 01.324.78c-1.005 7.185-.019 12.959 2.934 17.166a7.833 7.833 0 001.608 1.639 2.311 2.311 0 001.145.532 2.364 2.364 0 002.456-1.409 2.789 2.789 0 00.088-.98 1.22 1.22 0 00-.014-.388 20.717 20.717 0 01-.678-6.928 6.571 6.571 0 012.619-4.584 1.685 1.685 0 012.025 0 6.57 6.57 0 012.617 4.583 20.7 20.7 0 01-.678 6.929 1.238 1.238 0 00-.014.385 2.757 2.757 0 00.083.969 2.266 2.266 0 003.591.9 7.879 7.879 0 001.625-1.654c2.951-4.2 3.938-9.98 2.933-17.163a.859.859 0 01.321-.777c5.589-4.627 8.4-13.411 3.687-19.114a13.21 13.21 0 00-11.846-4.2 12.769 12.769 0 00-3.334.982 12.744 12.744 0 00-3.331-.981 13.208 13.208 0 00-11.848 4.2c-4.716 5.706-1.902 14.49 3.687 19.113zM4.307 22.593a10.792 10.792 0 019.562-3.327 10.39 10.39 0 013.141 1.009c.034.017.071.025.106.039a1.242 1.242 0 00.108.072 11.242 11.242 0 013.42 2.8 1.244 1.244 0 001.928-1.57 13.634 13.634 0 00-2.239-2.155c.311-.078.624-.144.938-.191a10.791 10.791 0 019.56 3.328c4.111 4.97.693 12.259-3.358 15.611a3.334 3.334 0 00-1.2 3.036c.915 6.539.072 11.717-2.5 15.387a4.639 4.639 0 01-.693.763c0-.019.006-.034.009-.05a21.2 21.2 0 00.576-7.151 8.9 8.9 0 00-3.755-6.35 4.156 4.156 0 00-4.685 0 8.9 8.9 0 00-3.755 6.35 21.2 21.2 0 00.576 7.146c0 .016.006.034.011.054a4.587 4.587 0 01-.69-.76c-2.578-3.672-3.42-8.85-2.505-15.39a3.334 3.334 0 00-1.2-3.036C3.614 34.852.199 27.562 4.307 22.593zM23.809 7.153a.121.121 0 00-.238 0c-.533 2.7-1.13 3.3-3.833 3.833a.121.121 0 000 .238c2.7.533 3.3 1.13 3.833 3.833a.121.121 0 00.238 0c.533-2.7 1.13-3.3 3.833-3.833a.121.121 0 000-.238c-2.703-.533-3.3-1.13-3.833-3.833zM7.708.134a.166.166 0 00-.326 0c-.73 3.706-1.549 4.525-5.255 5.255a.166.166 0 000 .326c3.706.73 4.525 1.549 5.255 5.255a.166.166 0 00.326 0c.73-3.706 1.549-4.525 5.255-5.255a.166.166 0 000-.326C9.255 4.659 8.437 3.84 7.708.134z"/><path class="aja" d="M11.225 23.816a.131.131 0 00-.257 0c-.575 2.918-1.22 3.562-4.138 4.138a.131.131 0 000 .257c2.918.575 3.562 1.22 4.138 4.138a.131.131 0 00.257 0c.575-2.918 1.22-3.562 4.138-4.138a.131.131 0 000-.257c-2.918-.576-3.562-1.221-4.138-4.138z"/></svg><svg viewBox="0 0 56.654 56" id="dental-3" xmlns="http://www.w3.org/2000/svg"><defs><style>.aka{fill:#d2cee3}</style></defs><path class="aka" d="M55.4 16.216h-3.12a14.452 14.452 0 00-3.182-10.334C45.526 1.572 39.074-.713 33.037.198a17.313 17.313 0 00-4.711 1.419A17.326 17.326 0 0023.618.199c-6.045-.912-12.493 1.372-16.06 5.683a14.451 14.451 0 00-3.182 10.334H1.259a1.259 1.259 0 100 2.518h3.448a23.472 23.472 0 007.919 13.088 1.67 1.67 0 01.616 1.511c-1.092 7.808-.774 13.017 4 19.823a10.47 10.47 0 002.15 2.187 2.757 2.757 0 001.354.638 2.437 2.437 0 00.31.019 2.664 2.664 0 002.6-1.645 3.464 3.464 0 00.1-1.227 1.244 1.244 0 00-.009-.444c-.047-.223-.094-.429-.14-.639-.012-.065-.021-.13-.034-.2a1.183 1.183 0 00-.035-.116q-.11-.481-.214-.923a14.774 14.774 0 01-.526-6.2 5.441 5.441 0 014.372-4.654 5.191 5.191 0 015.619 2.529c1.578 2.684.952 6.189.287 9.364v.015c0 .011 0 .023-.006.035l-.1.49-.064.3a1.259 1.259 0 00-.009.444 3.419 3.419 0 00.1 1.213 2.686 2.686 0 004.252 1.017 10.491 10.491 0 002.167-2.2c4.776-6.8 5.094-12.012 4-19.819a1.666 1.666 0 01.614-1.511 23.48 23.48 0 007.92-13.09h3.45a1.26 1.26 0 000-2.52zM42.417 29.887a4.171 4.171 0 00-1.5 3.8c1.023 7.31.749 11.872-3.568 18.022a8.152 8.152 0 01-1.68 1.678 1.44 1.44 0 01-.124.092.813.813 0 01-.15-.033 7.644 7.644 0 01.141-1.051c.73-3.482 1.489-7.685-.574-11.193a7.641 7.641 0 00-8.285-3.715 7.929 7.929 0 00-6.371 6.783 17.187 17.187 0 00.569 7.118c.088.376.181.78.274 1.2a6.349 6.349 0 01.106.866.9.9 0 01-.147.033 1.519 1.519 0 01-.14-.1 8.129 8.129 0 01-1.668-1.679c-4.318-6.152-4.591-10.714-3.568-18.025a4.173 4.173 0 00-1.5-3.8 21.8 21.8 0 01-6.98-11.15h11.614v3.926a3.125 3.125 0 003.121 3.128H23a3.117 3.117 0 002.92-2.05h4.81a3.117 3.117 0 002.918 2.05h1.015a3.125 3.125 0 003.121-3.121v-3.931H49.4a21.809 21.809 0 01-6.983 11.152zm-21.033-7.226V12.287a.6.6 0 01.6-.6H23a.6.6 0 01.6.6V22.66a.6.6 0 01-.6.6h-1.013a.6.6 0 01-.603-.599zm4.74-1.442v-7.492h4.4v7.493zm9.143-3.713v5.155a.6.6 0 01-.6.6h-1.018a.6.6 0 01-.6-.6V12.287a.6.6 0 01.6-.6h1.015a.6.6 0 01.6.6v5.19c0 .01.003.018.003.029zm14.533-1.29H37.785v-3.929a3.125 3.125 0 00-3.121-3.121h-1.015a3.117 3.117 0 00-2.918 2.045h-4.81A3.117 3.117 0 0023 9.164h-1.013a3.125 3.125 0 00-3.121 3.123v3.931H6.853A11.881 11.881 0 019.5 7.487c2.976-3.6 8.623-5.572 13.746-4.8a14.938 14.938 0 014.517 1.45 1.17 1.17 0 00.151.055 1.25 1.25 0 00.155.1 16.062 16.062 0 013.941 2.939 1.26 1.26 0 101.8-1.764 18.558 18.558 0 00-2.687-2.246 14.379 14.379 0 012.288-.534c5.114-.77 10.767 1.2 13.743 4.8a11.884 11.884 0 012.646 8.729z"/></svg><svg viewBox="0 0 45.003 56" id="dental-4" xmlns="http://www.w3.org/2000/svg"><defs><style>.ala{fill:##8cc63f}</style></defs><g transform="translate(-14.223 -4.992)"><path class="ala" d="M22 34.872a1.5 1.5 0 01.552 1.353c-1.3 9.256-.032 16.684 3.755 22.08a9.854 9.854 0 002.023 2.059 2.649 2.649 0 001.3.612 2.344 2.344 0 00.294.017 2.563 2.563 0 002.5-1.587 3.308 3.308 0 00.1-1.165 1.243 1.243 0 00-.01-.431c-.638-3.021-1.3-6.144-.887-9.149a8.939 8.939 0 013.582-6.235 2.562 2.562 0 013.037 0 8.936 8.936 0 013.582 6.235c.41 3-.249 6.129-.887 9.149a1.241 1.241 0 00-.011.428 3.249 3.249 0 00.094 1.153 2.636 2.636 0 002.82 1.581 2.6 2.6 0 001.261-.6 9.914 9.914 0 002.038-2.072c3.786-5.393 5.049-12.821 3.754-22.076a1.494 1.494 0 01.55-1.353c7.137-5.908 10.749-17.1 4.75-24.355-3.35-4.049-9.411-6.2-15.077-5.339a16.257 16.257 0 00-4.4 1.319 16.243 16.243 0 00-4.394-1.318c-5.668-.857-11.73 1.29-15.08 5.339-5.994 7.252-2.382 18.448 4.754 24.355zM19.169 12.1c2.769-3.344 8.031-5.181 12.793-4.46a13.914 13.914 0 014.2 1.349 1.139 1.139 0 00.14.05 1.222 1.222 0 00.145.1 15.024 15.024 0 014.575 3.748 1.244 1.244 0 001.929-1.572A17.454 17.454 0 0039.5 8.1a13.328 13.328 0 011.993-.46c4.76-.72 10.018 1.117 12.787 4.46 5.509 6.659.972 16.389-4.421 20.853a3.968 3.968 0 00-1.426 3.612c1.2 8.611.086 15.442-3.325 20.3a7.6 7.6 0 01-1.56 1.562 1.204 1.204 0 01-.089.068l-.056-.011a8.361 8.361 0 01.142-.989 27.3 27.3 0 00.745-9.177 11.205 11.205 0 00-4.717-8 5.036 5.036 0 00-5.7 0 11.206 11.206 0 00-4.717 8A27.3 27.3 0 0029.9 57.5a8.256 8.256 0 01.141.99L30 58.5c-.022-.016-.058-.042-.111-.085a7.52 7.52 0 01-1.543-1.547c-3.412-4.861-4.53-11.691-3.326-20.3a3.969 3.969 0 00-1.428-3.612C18.2 28.493 13.659 18.763 19.169 12.1z"/><circle class="ala" cx="2.052" cy="2.052" r="2.052" transform="translate(41.086 21.646)"/><circle class="ala" cx="2.052" cy="2.052" r="2.052" transform="translate(28.258 21.646)"/><path class="ala" d="M30.558 29.748a1.245 1.245 0 00-.063 1.759 8.316 8.316 0 0012.459 0 1.246 1.246 0 00-1.822-1.7 5.831 5.831 0 01-8.815 0 1.245 1.245 0 00-1.759-.059z"/></g></svg><svg viewBox="0 0 59.539 56" id="dental-5" xmlns="http://www.w3.org/2000/svg"><defs><style>.ama{fill:##8cc63f}</style></defs><path class="ama" d="M30.831.001a9.291 9.291 0 00-1.323 18.488v7.764a3.971 3.971 0 00-2.645 3.736V52.025a3.968 3.968 0 107.936 0v-1.593-.022V29.988a3.971 3.971 0 00-2.645-3.736v-7.764A9.29 9.29 0 0030.831.001zm1.322 29.987v19.1H29.51v-19.1a1.322 1.322 0 112.643 0zm-1.322 23.358a1.323 1.323 0 01-1.322-1.321v-.294h2.643v.294a1.323 1.323 0 01-1.321 1.321zm0-37.4a6.65 6.65 0 116.651-6.65 6.657 6.657 0 01-6.651 6.651z"/><path class="ama" d="M30.877 3.461a1.323 1.323 0 10-.09 2.645 3.368 3.368 0 013.263 3.383 1.323 1.323 0 002.646 0 6.006 6.006 0 00-5.819-6.028zM9.657.007A9.3 9.3 0 000 9.298a1.323 1.323 0 002.646 0 6.651 6.651 0 016.911-6.645 6.754 6.754 0 016.385 6.385 6.654 6.654 0 01-4.731 6.631 4.638 4.638 0 00-3.237 4.448v6.138a3.971 3.971 0 00-2.645 3.736v22.034a3.968 3.968 0 107.935 0v-1.583-.035-20.418a3.97 3.97 0 00-2.644-3.736v-6.137a1.976 1.976 0 011.351-1.913A9.3 9.3 0 009.658.003zm.96 49.076H7.974V29.989a1.322 1.322 0 012.643 0zM9.3 53.345a1.323 1.323 0 01-1.326-1.32v-.3h2.643v.3a1.323 1.323 0 01-1.317 1.32zM58.75 7.115L46.401 1.67a1.323 1.323 0 10-1.068 2.421l10.471 4.617-4.743 4.243a4.681 4.681 0 00-1.559 3.486v9.807a3.972 3.972 0 00-2.646 3.738v22.047a3.97 3.97 0 007.939 0V29.982a3.972 3.972 0 00-2.646-3.738v-9.807a2.034 2.034 0 01.676-1.513l6.272-5.612a1.324 1.324 0 00-.347-2.2zm-7.923 21.543a1.324 1.324 0 011.323 1.323V49.09h-2.647V29.981a1.325 1.325 0 011.324-1.323zm0 24.7a1.324 1.324 0 01-1.324-1.329v-.294h2.646v.294a1.324 1.324 0 01-1.322 1.325z"/></svg><svg viewBox="0 0 44.8 56" id="dental-6" xmlns="http://www.w3.org/2000/svg"><defs><style>.ana{fill:##8cc63f}</style></defs><g transform="translate(-14.009 -5.024)"><path class="ana" d="M58.506 12.871a2.7 2.7 0 00-2.884-1.9c-.2-.008-.426-.017-.685-.039a31.416 31.416 0 01-8.486-1.717l-.108-.041a41.159 41.159 0 01-7.388-3.41 4.758 4.758 0 00-5.092 0 41.159 41.159 0 01-7.388 3.41l-.108.041a31.416 31.416 0 01-8.486 1.717c-.259.022-.485.031-.685.039a2.7 2.7 0 00-2.884 1.9 8.852 8.852 0 00-.212 3.759c.038.476.073.924.07 1.244l-.019 1.565c-.1 8.12-.213 16.518 4.031 24.154 4.08 7.342 10.869 12.732 16.974 17.037a2.174 2.174 0 002.5 0c6.1-4.3 12.893-9.694 16.973-17.036 4.243-7.637 4.135-16.033 4.031-24.154l-.019-1.565c0-.319.032-.768.07-1.244a8.85 8.85 0 00-.205-3.76zm-2.272 3.562c-.042.533-.082 1.036-.078 1.467l.019 1.57c.105 8.153.2 15.855-3.717 22.913-3.8 6.833-10.223 11.962-16.048 16.081-5.826-4.12-12.252-9.249-16.048-16.081-3.922-7.058-3.823-14.759-3.717-22.913l.019-1.57c0-.431-.035-.934-.078-1.467a8.385 8.385 0 01.031-2.618 2.128 2.128 0 01.157-.323c.116-.017.34-.027.526-.035.232-.01.494-.021.794-.047a33.755 33.755 0 009.163-1.872l.108-.041a43.058 43.058 0 007.85-3.645 2.226 2.226 0 012.388 0 43.058 43.058 0 007.85 3.645l.108.041a33.7 33.7 0 009.163 1.872c.3.026.563.037.794.047.186.007.41.017.526.035a2.064 2.064 0 01.157.323 8.422 8.422 0 01.032 2.618z"/><circle class="ana" cx="1.245" cy="1.245" r="1.245" transform="translate(38.743 26.386)"/><circle class="ana" cx="1.245" cy="1.245" r="1.245" transform="translate(31.587 26.386)"/><path class="ana" d="M38.465 30.666a2.7 2.7 0 01-4.112 0 1.246 1.246 0 10-1.823 1.7 5.189 5.189 0 007.756 0 1.246 1.246 0 10-1.822-1.7z"/><path class="ana" d="M38.774 16.959a9.57 9.57 0 00-2.364.676 9.527 9.527 0 00-2.362-.675 9.915 9.915 0 00-8.9 3.164c-3.548 4.289-1.46 10.871 2.714 14.326a.288.288 0 01.113.251c-.449 3.224-.713 7.994 2.188 12.124a5.993 5.993 0 001.229 1.255 2.059 2.059 0 001 .46 1.878 1.878 0 00.238.014 1.968 1.968 0 001.913-1.278 2.327 2.327 0 00.078-.81 1.226 1.226 0 00-.018-.349l-.077-.352c0-.021-.007-.043-.011-.063v-.006l-.062-.283a9.561 9.561 0 01-.334-3.646 4.355 4.355 0 011.74-3.077.882.882 0 011.1 0 4.352 4.352 0 011.741 3.076 9.565 9.565 0 01-.334 3.647l-.054.249c0 .013-.009.025-.011.038l-.011.064-.077.351a1.227 1.227 0 00-.018.346 2.276 2.276 0 00.074.8 1.983 1.983 0 003.144.831 6.033 6.033 0 001.243-1.267c2.9-4.131 2.635-8.9 2.184-12.124a.286.286 0 01.111-.251c4.176-3.456 6.264-10.039 2.716-14.327a9.913 9.913 0 00-8.893-3.164zm4.59 15.576a2.756 2.756 0 00-.988 2.511c.579 4.136.163 7.152-1.319 9.649a9.84 9.84 0 00.11-3.262 6.79 6.79 0 00-2.877-4.843 3.354 3.354 0 00-3.761 0 6.79 6.79 0 00-2.876 4.843 9.837 9.837 0 00.11 3.261c-1.483-2.5-1.9-5.514-1.319-9.65a2.757 2.757 0 00-.99-2.511c-2.822-2.335-5.221-7.4-2.386-10.823a7.459 7.459 0 016.61-2.285 7.18 7.18 0 012.172.7c.024.012.05.016.074.027s.047.035.074.049a7.8 7.8 0 012.373 1.942 1.245 1.245 0 001.929-1.575 10.156 10.156 0 00-1.116-1.146 7.453 7.453 0 016.567 2.293c2.835 3.423.436 8.483-2.387 10.82z"/></g></svg><svg viewBox="0 0 62 62.001" id="dental-7" xmlns="http://www.w3.org/2000/svg"><path d="M49.205 31.9A17.372 17.372 0 0057 17c0-9.374-6.729-17-15-17a14.149 14.149 0 00-11 5.456A14.149 14.149 0 0020 0C11.729 0 5 7.626 5 17a17.372 17.372 0 007.8 14.9l.37 2.72a65.218 65.218 0 009.13 25.522 3.779 3.779 0 002.776 1.84A3.566 3.566 0 0029 58.434V42.17A2.119 2.119 0 0130.891 40 2 2 0 0133 42v16.274A3.568 3.568 0 0036.574 62a3.55 3.55 0 003.032-1.7l.1-.156a65.244 65.244 0 009.134-25.526zm-1.917-.746l-.436 3.2A63.262 63.262 0 0138 59.1l-.1.157a1.535 1.535 0 01-.524.5l4.495-16.484A31.96 31.96 0 0043 34.849v-.262a31.99 31.99 0 00-.5-5.509l4.121-3.3a.991.991 0 00.355-.585l1-5-1.957-.393-.929 4.643-3.05 2.44a32.006 32.006 0 00-2.861-7.428l4.334-2.6a1 1 0 00.466-.661l1-5-1.961-.394-.913 4.566-3.905 2.349-1.339-2.231-1.715 1.029 1.582 2.637A29.945 29.945 0 0138.662 23h-3.129l-1.7-2.555-1.664 1.109 2 3A1 1 0 0035 25h4.416a29.981 29.981 0 011.484 7.2l-3.653.73L33.6 30.2l-1.2 1.6 4 3a.993.993 0 00.8.18l3.791-.758c0 .122.013.243.013.365v.262a29.94 29.94 0 01-1.058 7.894L35.4 59.415a1.857 1.857 0 01-.4-1.141V42a4 4 0 00-4.214-4A4.089 4.089 0 0027 42.17v16.264a1.567 1.567 0 01-.386 1.018l-4.557-16.71A29.968 29.968 0 0121 34.849v-.262c0-.122.011-.243.012-.365l3.791.758A1.02 1.02 0 0025 35a1 1 0 00.6-.2l4-3-1.2-1.6-3.643 2.731L21.1 32.2a29.971 29.971 0 011.483-7.2H27a1 1 0 00.832-.445l2-3-1.664-1.109L26.465 23h-3.129a30.14 30.14 0 011.939-3.849l1.582-2.637-1.715-1.029-1.342 2.231-3.91-2.346-.91-4.57-1.961.393 1 5a1 1 0 00.466.661l4.334 2.6a32.006 32.006 0 00-2.861 7.428l-3.05-2.44-.929-4.642-1.961.393 1 5a1 1 0 00.355.585l4.121 3.3A32.159 32.159 0 0019 34.587v.262a31.989 31.989 0 001.128 8.419l4.493 16.475A2.093 2.093 0 0124 59.1a63.234 63.234 0 01-8.854-24.747l-.436-3.2a1 1 0 00-.492-.732C9.767 27.857 7 22.716 7 17 7 8.729 12.832 2 20 2a12.391 12.391 0 0110.177 5.69 1.038 1.038 0 001.646 0A12.391 12.391 0 0142 2c7.168 0 13 6.729 13 15 0 5.716-2.767 10.857-7.22 13.419a1 1 0 00-.492.732z"/><path d="M53 17c0-7.168-4.935-13-11-13v2c4.963 0 9 4.935 9 11zM48 54a4 4 0 104 4 4 4 0 00-4-4zm0 6a2 2 0 112-2 2 2 0 01-2 2zM55 40a7 7 0 107 7 7.009 7.009 0 00-7-7zm0 12a5 5 0 115-5 5.006 5.006 0 01-5 5zM14 54a4 4 0 104 4 4 4 0 00-4-4zm0 6a2 2 0 112-2 2 2 0 01-2 2zM14 47a7 7 0 10-7 7 7.009 7.009 0 007-7zm-7 5a5 5 0 115-5 5.006 5.006 0 01-5 5z"/></svg><svg viewBox="0 0 25.055 32" id="derma" xmlns="http://www.w3.org/2000/svg"><defs><style>.apa{fill:#8cc63f}</style></defs><path class="apa" d="M6.408 29.082a15.5 15.5 0 003.154-.851c2.2-.755 4.477-1.536 6.1-.267 1 .784 1.173 2 1.357 3.28l.043.3a.533.533 0 00.531.453h.07a.533.533 0 00.456-.611l-.043-.3c-.205-1.435-.419-2.92-1.755-3.968-2.075-1.629-4.744-.712-7.1.1a14.57 14.57 0 01-2.933.8 2.1 2.1 0 01-1.779-.437 2.425 2.425 0 01-.493-1.76 3.533 3.533 0 00-1.183-3.215l-.029-.021a1.17 1.17 0 01-.224-.2.611.611 0 01.221-.2 1.069 1.069 0 00.283-1.475.533.533 0 00-.352-.267c-.325-.077-.533-.2-.584-.328-.064-.2.157-.6.349-.824a1.77 1.77 0 00.533-2.285 2.308 2.308 0 00-1.277-.733l-.235-.075a.613.613 0 01-.461-.6c-.021-.248.085-.389.395-.725l.12-.133q.8-.888 1.6-1.765l.891-.976a3.834 3.834 0 00.995-2.205 9.368 9.368 0 00-.267-2.845 8.05 8.05 0 01-.221-2.595 14.978 14.978 0 01.912-3.218l.155-.421a.534.534 0 10-1-.365l-.152.416a15.778 15.778 0 00-.979 3.466 9.066 9.066 0 00.235 2.933 8.487 8.487 0 01.248 2.523 3.116 3.116 0 01-.072.4.571.571 0 01-.267-.229.534.534 0 00-.9.568 1.629 1.629 0 00.733.629 2.757 2.757 0 01-.2.245l-.888.968q-.8.868-1.6 1.763l-.112.123a1.932 1.932 0 00-.672 1.533 1.672 1.672 0 001.179 1.507l.267.088a1.651 1.651 0 01.728.341c.125.173-.12.635-.4.877l-.048.045a2.195 2.195 0 00-.6 1.867 1.493 1.493 0 00.989.949 1.333 1.333 0 00-.605.955 1.281 1.281 0 00.656 1.128 2.464 2.464 0 01.8 2.216 3.551 3.551 0 00.781 2.667 3.056 3.056 0 002.65.754zM19.88 28.267a.533.533 0 00.395-.176c1.224-1.349 4.13-4.912 4.68-8.829.76-5.394-2.906-8.328-6.45-11.146-2.7-2.152-5.49-4.381-6.261-7.7a.534.534 0 10-1.04.24c.856 3.685 3.794 6.029 6.637 8.293 3.466 2.76 6.733 5.365 6.058 10.167a16.976 16.976 0 01-4.416 8.266.533.533 0 00.4.885z"/><path class="apa" d="M18.239 24.166a.533.533 0 00.744-.12 7.9 7.9 0 001.539-4.5c-.075-3.688-2.451-5.888-4.746-8a23.6 23.6 0 01-2.933-3.048 9.109 9.109 0 01-1.418-2.518.533.533 0 10-1.011.339 10.109 10.109 0 001.579 2.805 24.4 24.4 0 003.056 3.2c2.237 2.059 4.344 4.008 4.41 7.245a6.91 6.91 0 01-1.334 3.853.533.533 0 00.114.744z"/><circle class="apa" cx=".533" cy=".533" r=".533" transform="translate(9.589 10.668)"/><circle class="apa" cx=".533" cy=".533" r=".533" transform="translate(12.256 15.201)"/><circle class="apa" cx=".533" cy=".533" r=".533" transform="translate(8.256 13.334)"/><circle class="apa" cx=".533" cy=".533" r=".533" transform="rotate(-82.53 17.78 5.72)"/><circle class="apa" cx=".533" cy=".533" r=".533" transform="rotate(-82.5 17.854 2.556)"/><path class="apa" d="M11.097 16.609a.533.533 0 00-.517-.227l-.888.131-.613-.621a.533.533 0 00-.907.285l-.139.824-.8.36a.533.533 0 00-.016.965l.784.387.112.827a.533.533 0 00.9.315l.635-.6.883.16a.533.533 0 00.565-.773l-.389-.739.416-.725a.533.533 0 00-.021-.565z"/></svg><svg viewBox="0 0 55.612 64" id="doctor" xmlns="http://www.w3.org/2000/svg"><defs><style>.aqa{fill:#d1e8b2}</style></defs><path class="aqa" d="M50.418 43.306c-.606-.4-1.211-.808-1.918-1.312l-2.221-1.312c-.606-.3-1.211-.606-1.918-1.009l-.707-.4c-.606-.3-1.312-.707-2.019-1.009a14.018 14.018 0 00-2.624-1.018l-1.11-.3-.5.808c-.5.707-5.148 5.148-9.59 9.186-4.442-4.139-9.085-8.48-9.59-9.186l-.5-.808-1.11.4a10.119 10.119 0 00-2.524 1.009c-.707.3-1.413.707-2.12 1.009l-.808.4-.606.3-2.322 1.312c-1.009.606-2.019 1.211-2.826 1.817C3.487 44.606 1.67 46.12.761 48.139a12.59 12.59 0 00-.716 5.766v6.158A3.942 3.942 0 003.982 64h47.647a3.942 3.942 0 003.937-3.937v-6.057a12.59 12.59 0 00-.707-5.754 13.131 13.131 0 00-4.441-4.946zm-6.864 6.864a2.647 2.647 0 011.312 1.615 2.354 2.354 0 01-.2 2.019 2.647 2.647 0 01-1.621 1.312 2.354 2.354 0 01-2.019-.2 2.647 2.647 0 01-1.312-1.615 2.354 2.354 0 01.2-2.019 2.647 2.647 0 011.615-1.312 2.223 2.223 0 01.808-.1 2.688 2.688 0 011.216.3zm9.491 3.634v6.158a1.38 1.38 0 01-1.413 1.413H3.982a1.38 1.38 0 01-1.413-1.413v-6.259a9.742 9.742 0 01.5-4.543 11.252 11.252 0 013.735-3.836 27.324 27.324 0 012.524-1.716l1.217-.706a28.911 28.911 0 00.707 2.826 4.216 4.216 0 00-1.514 1.11 5.992 5.992 0 00-1.312 1.817 6.819 6.819 0 00-.5 4.24l1.306 5.551 3.937-.909a1.249 1.249 0 00-.606-2.423l-1.514.3-.704-3.124a3.626 3.626 0 01.3-2.524 4.482 4.482 0 01.808-1.11 4.037 4.037 0 011.816-1.01 3.409 3.409 0 012.019.1 3.585 3.585 0 01.909.4c.1.1.2.1.3.2a3.79 3.79 0 011.413 2.12l.707 3.129-1.514.3a1.249 1.249 0 10.606 2.423l3.937-.909-1.312-5.552a5.958 5.958 0 00-2.221-3.533 2.112 2.112 0 00-.606-.4 5.276 5.276 0 00-1.514-.707 17.111 17.111 0 00-2.322-.1 17.844 17.844 0 01-.808-3.129c0-.1 0-.1-.1-.2l.2-.1c.606-.3 1.312-.707 2.019-1.009a12.315 12.315 0 011.716-.707c2.12 2.221 8.177 7.874 10.2 9.691l.808.808.808-.808c2.019-1.817 8.076-7.47 10.2-9.691.5.2 1.11.4 1.716.707s1.312.606 1.918.909l.707.4c.5.3 1.009.5 1.514.808a15.9 15.9 0 01-1.624 4.65 4.48 4.48 0 00-2.322.2 4.873 4.873 0 00-3.028 2.625 5.314 5.314 0 00-.3 3.937 4.873 4.873 0 002.625 3.028 4.8 4.8 0 002.425.61 8.834 8.834 0 001.615-.2 4.873 4.873 0 003.028-2.625 5.314 5.314 0 00.3-3.937 5.893 5.893 0 00-1.817-2.625 17.073 17.073 0 001.514-4.341l.2.1c.606.4 1.211.808 1.716 1.11a11.252 11.252 0 013.735 3.836 11.6 11.6 0 01.409 4.64z"/><path class="aqa" d="M13.067 20.391a5.908 5.908 0 00.2 1.309c0 .2.1.4.1.606a5.307 5.307 0 002.726 4.341.1.1 0 00.1.1 13.884 13.884 0 005.552 8.278 10.639 10.639 0 001.11.707c.5.3 1.211.5 1.817.808h.1a7.565 7.565 0 001.615.5 5.756 5.756 0 001.312.1h.3a5.333 5.333 0 001.312-.1 4.465 4.465 0 001.514-.5h.1a10.94 10.94 0 001.918-.808 6.789 6.789 0 001.11-.707 13.521 13.521 0 003.735-3.836 17.983 17.983 0 001.211-2.423c.1-.3.2-.707.3-1.009a4.694 4.694 0 01.3-.909 4.664 4.664 0 01.707-.707c.2-.1.3-.3.5-.4a5.134 5.134 0 001.615-3.533c0-.2.1-.4.1-.606.1-.4.1-.909.2-1.312v-1.11a2.939 2.939 0 00-1.918-3.028v-.606a4.338 4.338 0 01.2-1.211 15.014 15.014 0 00.5-3.634 9.188 9.188 0 00-5.552-8.984c-.4-.2-.808-.3-1.211-.5A19.254 19.254 0 0027.805 0h-1.514a14 14 0 00-5.047 1.009 2.206 2.206 0 00-.5.3 6.145 6.145 0 00-1.615 1.615c-.1.1-.2.2-.2.3a3.2 3.2 0 01-.5.606 6.79 6.79 0 01-1.11.707 3.564 3.564 0 00-1.716 1.514 10.688 10.688 0 00-.909 3.735 24.626 24.626 0 00.1 3.937 10.065 10.065 0 00.2 1.615c.1.3.1.606.2 1.009h-.1a2.882 2.882 0 00-2.027 3.136v.908zm2.625-1.716h1.009l.2-.1a1.611 1.611 0 00.808-1.413 8.6 8.6 0 00-.3-2.322 5.067 5.067 0 01-.2-1.211c-.1-1.009-.1-2.322-.1-3.634a5.406 5.406 0 01.5-2.423 1.008 1.008 0 01.5-.4 5.423 5.423 0 001.615-1.009 3.337 3.337 0 001.009-1.211l.2-.3a3.855 3.855 0 01.909-.909c.1-.1.2-.1.3-.2a12.051 12.051 0 014.139-.808h1.312a16.444 16.444 0 015.956 1.11c.3.1.707.3 1.009.4a6.652 6.652 0 014.049 6.655 17.736 17.736 0 01-.4 3.129 8.835 8.835 0 00-.2 1.615l-.1.606a2.922 2.922 0 000 1.615 1.7 1.7 0 001.716 1.009.771.771 0 01.2.5v1.11c0 .4-.1.707-.1 1.11 0 .2-.1.5-.1.707a2.619 2.619 0 01-.808 1.918c-.1.1-.3.2-.4.3-.3.3-.707.606-1.11 1.009a3.937 3.937 0 00-.808 1.918c-.1.2-.1.4-.2.606a9.42 9.42 0 01-1.009 2.019 12.406 12.406 0 01-2.927 3.129 4.091 4.091 0 01-.909.5 11.75 11.75 0 01-1.514.606.352.352 0 00-.2.1 3.846 3.846 0 01-1.009.3 3.434 3.434 0 01-1.009.1 3.434 3.434 0 01-1.009-.1c-.4-.1-.707-.2-1.11-.3l-.2-.1a11.75 11.75 0 01-1.514-.606 4.092 4.092 0 00-.909-.5 10.785 10.785 0 01-4.442-6.763 2.511 2.511 0 00-1.009-1.514l-.2-.1a3.284 3.284 0 01-1.514-2.524c0-.2-.1-.5-.1-.707a4.141 4.141 0 01-.1-1.11v-1.11a2.465 2.465 0 01.079-.697z"/></svg><svg viewBox="0 0 20 16" id="email" xmlns="http://www.w3.org/2000/svg"><defs><style>.ara{fill:#d2cee3}</style></defs><path class="ara" d="M18 0H2A2 2 0 00.01 2L0 14a2.006 2.006 0 002 2h16a2.006 2.006 0 002-2V2a2.006 2.006 0 00-2-2zm0 4l-8 5-8-5V2l8 5 8-5z"/></svg><svg viewBox="0 0 8.569 16" id="facebook" xmlns="http://www.w3.org/2000/svg"><defs><style>.asa{fill:##8cc63f}</style></defs><path class="asa" d="M8.008 9l.444-2.9H5.674V4.225a1.448 1.448 0 011.633-1.564H8.57V.2A15.4 15.4 0 006.328 0a3.535 3.535 0 00-3.784 3.9v2.2H0V9h2.544v7h3.13V9z"/></svg><svg viewBox="0 0 16.004 16" id="instagram" xmlns="http://www.w3.org/2000/svg"><defs><style>.ata{fill:#222c61}</style></defs><path class="ata" d="M8.005 3.898a4.1 4.1 0 104.1 4.1 4.1 4.1 0 00-4.1-4.1zm0 6.765a2.667 2.667 0 112.667-2.667 2.672 2.672 0 01-2.667 2.667zm5.227-6.937a.957.957 0 11-.957-.957.955.955 0 01.955.962zm2.717.971a4.735 4.735 0 00-1.294-3.348 4.766 4.766 0 00-3.35-1.292c-1.321-.075-5.28-.075-6.6 0a4.759 4.759 0 00-3.357 1.289A4.751 4.751 0 00.056 4.698c-.075 1.321-.075 5.28 0 6.6a4.735 4.735 0 001.292 3.352 4.772 4.772 0 003.357 1.294c1.321.075 5.28.075 6.6 0a4.735 4.735 0 003.352-1.292 4.766 4.766 0 001.292-3.352c.075-1.321.075-5.277 0-6.6zm-1.707 8.015a2.7 2.7 0 01-1.521 1.521c-1.053.418-3.552.321-4.716.321s-3.667.093-4.716-.321a2.7 2.7 0 01-1.521-1.521c-.42-1.049-.323-3.549-.323-4.711s-.093-3.667.321-4.716a2.7 2.7 0 011.521-1.522c1.053-.417 3.552-.321 4.718-.321s3.667-.093 4.716.321a2.7 2.7 0 011.521 1.521c.418 1.053.321 3.552.321 4.716s.095 3.663-.323 4.717z"/></svg><svg viewBox="0 0 14.008 24" id="iphone" xmlns="http://www.w3.org/2000/svg"><g fill="##8cc63f"><path d="M10.776 1.078a2.155 2.155 0 012.155 2.155v17.534a2.155 2.155 0 01-2.155 2.155H3.233a2.155 2.155 0 01-2.155-2.155V3.233a2.155 2.155 0 012.155-2.155h7.543m0-1.078H3.233A3.233 3.233 0 000 3.233v17.534A3.233 3.233 0 003.233 24h7.543a3.233 3.233 0 003.233-3.233V3.233A3.233 3.233 0 0010.776 0z"/><path d="M4.663.199h4.685a.269.269 0 01.269.269v1.2a.269.269 0 01-.269.269H4.663a.269.269 0 01-.269-.264V.468a.269.269 0 01.269-.269z"/></g></svg><svg viewBox="0 0 12.996 12.995" id="linkedin" xmlns="http://www.w3.org/2000/svg"><defs><style>.ava{fill:##8cc63f}</style></defs><path class="ava" d="M2.909 12.999H.215v-8.68h2.694zM1.56 3.135A1.568 1.568 0 113.12 1.56a1.574 1.574 0 01-1.56 1.575zm11.433 9.864H10.3V8.772c0-1.007-.02-2.3-1.4-2.3-1.4 0-1.615 1.094-1.615 2.225v4.302H4.6v-8.68h2.581v1.18h.038a2.831 2.831 0 012.549-1.4c2.727 0 3.232 1.8 3.232 4.13v4.77z"/></svg><svg viewBox="0 0 40.217 48" id="location" xmlns="http://www.w3.org/2000/svg"><defs><style>.awa{fill:#badd8b}</style></defs><path class="awa" d="M20.109 12.003a8 8 0 108 8 8 8 0 00-8-8zm0 12a4 4 0 114-4 4 4 0 01-4 4z"/><path class="awa" d="M20.108 48.002a10.541 10.541 0 01-8.621-4.4C3.866 33.087 0 25.184 0 20.108a20.108 20.108 0 1140.217 0c0 5.076-3.866 12.979-11.487 23.492a10.541 10.541 0 01-8.622 4.402zm0-43.634A15.765 15.765 0 004.362 20.112c0 4.02 3.786 11.453 10.657 20.93a6.289 6.289 0 0010.179 0c6.871-9.477 10.657-16.91 10.657-20.93A15.765 15.765 0 0020.108 4.366z"/></svg><svg viewBox="0 0 27.806 32" id="medical" xmlns="http://www.w3.org/2000/svg"><defs><style>.axa{fill:##8cc63f}</style></defs><path class="axa" d="M25.209 21.653c-.3-.2-.606-.4-.959-.656l-1.11-.656c-.3-.151-.606-.3-.959-.5l-.353-.2c-.3-.151-.656-.353-1.009-.5a7.009 7.009 0 00-1.312-.5l-.562-.168-.252.4c-.252.353-2.574 2.574-4.795 4.593-2.221-2.069-4.543-4.24-4.795-4.593l-.252-.4-.555.2a5.059 5.059 0 00-1.262.5c-.353.151-.707.353-1.06.5l-.4.2-.3.151-1.161.656c-.5.3-1.009.606-1.413.909a6.771 6.771 0 00-2.324 2.484 6.3 6.3 0 00-.353 2.877v3.079a1.971 1.971 0 001.968 1.968h23.823a1.971 1.971 0 001.968-1.968v-3.026a6.3 6.3 0 00-.353-2.877 6.565 6.565 0 00-2.22-2.473zm-3.432 3.432a1.324 1.324 0 01.656.808 1.177 1.177 0 01-.1 1.009 1.323 1.323 0 01-.808.656 1.177 1.177 0 01-1.009-.1 1.324 1.324 0 01-.656-.808 1.177 1.177 0 01.1-1.009 1.324 1.324 0 01.808-.656 1.112 1.112 0 01.4-.05 1.344 1.344 0 01.608.15zm4.744 1.817v3.079a.69.69 0 01-.707.707H1.991a.69.69 0 01-.707-.707v-3.129a4.871 4.871 0 01.252-2.271 5.626 5.626 0 011.868-1.918 13.662 13.662 0 011.262-.858l.606-.353a14.454 14.454 0 00.353 1.413 2.108 2.108 0 00-.757.555 3 3 0 00-.656.909 3.41 3.41 0 00-.252 2.12l.656 2.776 1.968-.454a.624.624 0 10-.3-1.211l-.757.151-.353-1.565a1.813 1.813 0 01.151-1.262 2.241 2.241 0 01.4-.555 2.019 2.019 0 01.909-.5 1.7 1.7 0 011.009.05 1.793 1.793 0 01.454.2c.05.05.1.05.151.1a1.9 1.9 0 01.707 1.06l.353 1.565-.757.151a.624.624 0 10.3 1.211l1.968-.454-.656-2.776a2.979 2.979 0 00-1.11-1.767 1.056 1.056 0 00-.3-.2 2.638 2.638 0 00-.757-.353 8.556 8.556 0 00-1.161-.05 8.922 8.922 0 01-.4-1.565c0-.05 0-.05-.05-.1l.1-.05c.3-.151.656-.353 1.009-.5a6.158 6.158 0 01.858-.353c1.06 1.11 4.088 3.937 5.1 4.845l.4.4.4-.4c1.009-.909 4.038-3.735 5.1-4.845.252.1.555.2.858.353s.656.3.959.454l.353.2c.252.151.5.252.757.4a7.948 7.948 0 01-.808 2.322 2.24 2.24 0 00-1.161.1 2.436 2.436 0 00-1.514 1.312 2.657 2.657 0 00-.151 1.968 2.436 2.436 0 001.312 1.514 2.4 2.4 0 001.211.3 4.418 4.418 0 00.808-.1 2.436 2.436 0 001.514-1.312 2.657 2.657 0 00.151-1.968 2.946 2.946 0 00-.909-1.312 8.537 8.537 0 00.757-2.17l.1.05c.3.2.606.4.858.555a5.626 5.626 0 011.868 1.918 5.8 5.8 0 01.206 2.32z"/><path class="axa" d="M6.539 10.2a2.954 2.954 0 00.1.656c0 .1.05.2.05.3a2.654 2.654 0 001.363 2.17.049.049 0 00.05.05 6.942 6.942 0 002.776 4.139 5.32 5.32 0 00.555.353c.252.151.606.252.909.4h.05a3.782 3.782 0 00.808.252 2.878 2.878 0 00.656.05h.151a2.666 2.666 0 00.656-.05 2.233 2.233 0 00.757-.252h.05a5.47 5.47 0 00.959-.4 3.4 3.4 0 00.555-.353A6.76 6.76 0 0018.85 15.6a8.99 8.99 0 00.606-1.211c.05-.151.1-.353.151-.5a2.347 2.347 0 01.151-.454 2.332 2.332 0 01.353-.353c.1-.05.151-.151.252-.2a2.567 2.567 0 00.808-1.767c0-.1.05-.2.05-.3.05-.2.05-.454.1-.656V9.59a1.469 1.469 0 00-.959-1.514v-.3a2.169 2.169 0 01.1-.606 7.507 7.507 0 00.252-1.817A4.594 4.594 0 0017.939.858c-.2-.1-.4-.151-.606-.252A9.627 9.627 0 0013.903 0h-.757a7 7 0 00-2.524.5 1.1 1.1 0 00-.252.151 3.072 3.072 0 00-.808.808c-.05.05-.1.1-.1.151a1.6 1.6 0 01-.252.3 3.4 3.4 0 01-.555.353 1.782 1.782 0 00-.858.757 5.344 5.344 0 00-.458 1.88 12.313 12.313 0 00.05 1.968 5.032 5.032 0 00.1.808c.05.151.05.3.1.5h-.05a1.441 1.441 0 00-1 1.565v.459zm1.312-.858h.5l.1-.05a.806.806 0 00.4-.707A4.3 4.3 0 008.7 7.424a2.533 2.533 0 01-.1-.606c-.05-.5-.05-1.161-.05-1.817a2.7 2.7 0 01.252-1.211.5.5 0 01.252-.2 2.712 2.712 0 00.808-.5 1.669 1.669 0 00.5-.606l.1-.151a1.927 1.927 0 01.454-.454c.05-.05.1-.05.151-.1a6.025 6.025 0 012.069-.4h.656a8.222 8.222 0 012.978.555c.151.05.353.151.5.2a3.326 3.326 0 012.019 3.331 8.868 8.868 0 01-.2 1.565 4.418 4.418 0 00-.1.808l-.05.3a1.461 1.461 0 000 .808.85.85 0 00.858.5.386.386 0 01.1.252v.555c0 .2-.05.353-.05.555 0 .1-.05.252-.05.353a1.31 1.31 0 01-.4.959c-.05.05-.151.1-.2.151-.151.151-.353.3-.555.5a1.968 1.968 0 00-.4.959c-.05.1-.05.2-.1.3a4.71 4.71 0 01-.5 1.009 6.2 6.2 0 01-1.464 1.565 2.046 2.046 0 01-.454.252 5.875 5.875 0 01-.757.3.176.176 0 00-.1.05 1.923 1.923 0 01-.5.151 2.549 2.549 0 01-1.009 0c-.2-.05-.353-.1-.555-.151l-.1-.05a5.875 5.875 0 01-.757-.3 2.046 2.046 0 00-.454-.252 5.393 5.393 0 01-2.221-3.382 1.256 1.256 0 00-.5-.757l-.1-.05a1.642 1.642 0 01-.757-1.262c0-.1-.05-.252-.05-.353a2.07 2.07 0 01-.05-.555v-.554a1.232 1.232 0 01.033-.353z"/></svg><svg viewBox="0 0 41.552 47.999" id="message" xmlns="http://www.w3.org/2000/svg"><defs><style>.aya{fill:##8cc63f}</style></defs><path class="aya" d="M36.183 9.363a1.547 1.547 0 001.631-.354L41.1 5.723a1.541 1.541 0 00-.548-2.532l-1.6-.6-.6-1.6A1.542 1.542 0 0035.82.444l-3.28 3.292a1.543 1.543 0 00-.353 1.63l.743 1.978-.8.8A19.19 19.19 0 108.183 38.043l-3.28 7.44a1.793 1.793 0 001.639 2.516h4.1a1.8 1.8 0 001.647-1.066l2.592-5.893a18.622 18.622 0 008.665 0l2.594 5.9a1.8 1.8 0 001.648 1.059h4.094a1.788 1.788 0 001.51-.824 1.767 1.767 0 00.127-1.692l-3.272-7.443a19.137 19.137 0 003.148-28.623l.8-.8zm.633-7.364l.6 1.607a.9.9 0 00.525.525l1.608.6-2.891 2.89-1.982-.743-.751-1.989zM10.645 46.204h-4.1l3.17-7.19a19.076 19.076 0 003.422 1.533zm21.237 0l-4.1.007-2.49-5.663a19.08 19.08 0 003.422-1.534zm4.75-23.868a17.487 17.487 0 11-5.775-12.918l-2.219 2.219a14.339 14.339 0 101.269 1.269l2.219-2.219a17.324 17.324 0 014.506 11.649zm-14.421 0a3 3 0 11-3-3 2.958 2.958 0 011.372.348l-2.66 2.66a.9.9 0 001.27 1.269l2.662-2.662a2.956 2.956 0 01.356 1.385zm-.309-3.964a4.8 4.8 0 101.27 1.268l2.249-2.249a7.971 7.971 0 11-1.27-1.268zm3.528-3.527a9.755 9.755 0 101.27 1.269l1.939-1.939a12.512 12.512 0 11-1.269-1.269z"/></svg><svg viewBox="0 0 16 18.286" id="play" xmlns="http://www.w3.org/2000/svg"><defs><style>.aza{fill:##8cc63f}</style></defs><path class="aza" d="M14.481 8.275a1 1 0 010 1.736L1.5 17.431a1 1 0 01-1.5-.868V1.723A1 1 0 011.5.855z"/></svg><svg viewBox="0 0 27.429 24" id="quote" xmlns="http://www.w3.org/2000/svg"><defs><style>.baa{fill:##8cc63f}</style></defs><path class="baa" d="M24.857 0H18a2.572 2.572 0 00-2.571 2.571v6.857A2.572 2.572 0 0018 12h4.286v3.429a3.432 3.432 0 01-3.429 3.429h-.429a1.283 1.283 0 00-1.286 1.286v2.571a1.283 1.283 0 001.286 1.286h.429a8.569 8.569 0 008.571-8.571V2.571A2.572 2.572 0 0024.857 0zM9.428 0H2.571A2.572 2.572 0 000 2.571v6.857A2.572 2.572 0 002.571 12h4.286v3.429a3.432 3.432 0 01-3.429 3.429H3a1.283 1.283 0 00-1.286 1.286v2.571A1.283 1.283 0 003 24h.429A8.569 8.569 0 0012 15.429V2.571A2.572 2.572 0 009.429 0z"/></svg><svg viewBox="0 0 15.996 16" id="search" xmlns="http://www.w3.org/2000/svg"><defs><style>.bba{fill:#624f43}</style></defs><path class="bba" d="M15.808 14.842l-4.449-4.49a6.34 6.34 0 10-.962.975l4.42 4.461a.685.685 0 00.966.025.689.689 0 00.025-.971zM6.377 11.38a5.006 5.006 0 113.541-1.466 4.975 4.975 0 01-3.54 1.466z"/></svg><svg viewBox="0 0 16.717 16" id="star" xmlns="http://www.w3.org/2000/svg"><defs><style>.bca{fill:#ffc107}</style></defs><path class="bca" d="M7.459.557L5.422 4.694l-4.563.665a1 1 0 00-.553 1.706l3.3 3.218-.781 4.546a1 1 0 001.45 1.053l4.084-2.146 4.084 2.147a1 1 0 001.45-1.053l-.781-4.546 3.3-3.218a1 1 0 00-.553-1.707l-4.565-.666L9.259.557a1 1 0 00-1.8 0z"/></svg><svg viewBox="0 0 16 16" id="tel" xmlns="http://www.w3.org/2000/svg"><defs><style>.bda{fill:#d2cee3}</style></defs><path class="bda" d="M15.544 11.307l-3.5-1.5a.75.75 0 00-.875.216l-1.55 1.894a11.583 11.583 0 01-5.538-5.538l1.894-1.55a.748.748 0 00.216-.875l-1.5-3.5a.755.755 0 00-.86-.435l-3.25.75A.75.75 0 000 1.5 14.5 14.5 0 0014.5 16a.75.75 0 00.731-.581l.75-3.25a.759.759 0 00-.438-.863z"/></svg><svg viewBox="0 0 16 12.995" id="twitter" xmlns="http://www.w3.org/2000/svg"><defs><style>.bea{fill:##8cc63f}</style></defs><path class="bea" d="M14.355 3.238c.01.142.01.284.01.426a9.266 9.266 0 01-9.33 9.33A9.267 9.267 0 010 11.519a6.784 6.784 0 00.792.041 6.567 6.567 0 004.071-1.4A3.285 3.285 0 011.8 7.888a4.135 4.135 0 00.619.051 3.468 3.468 0 00.863-.112A3.28 3.28 0 01.65 4.609v-.041a3.3 3.3 0 001.482.416A3.284 3.284 0 011.117.599 9.321 9.321 0 007.878 4.03a3.7 3.7 0 01-.078-.751 3.282 3.282 0 015.675-2.244 6.456 6.456 0 002.081-.792 3.27 3.27 0 01-1.442 1.807A6.574 6.574 0 0016 1.543a7.049 7.049 0 01-1.645 1.7z"/></svg><svg viewBox="0 0 48 48" id="values" xmlns="http://www.w3.org/2000/svg"><defs><style>.bfa{fill:##8cc63f}</style></defs><path class="bfa" d="M46.673 21.63l-.139-.085a5.027 5.027 0 01-1.792-6.688l.078-.142a2.779 2.779 0 00-2.372-4.105h-.152a5.025 5.025 0 01-4.9-4.9v-.153a2.779 2.779 0 00-4.106-2.372l-.14.076a5.028 5.028 0 01-6.69-1.793l-.084-.138a2.779 2.779 0 00-4.739 0l-.085.14a5.027 5.027 0 01-6.689 1.791l-.141-.077a2.779 2.779 0 00-4.106 2.373v.15a5.025 5.025 0 01-4.9 4.9h-.15a2.779 2.779 0 00-2.372 4.106l.076.141a5.028 5.028 0 01-1.79 6.689l-.14.085a2.779 2.779 0 000 4.74l.139.085a5.027 5.027 0 011.792 6.688l-.078.142a2.779 2.779 0 002.372 4.105h.152a5.025 5.025 0 014.9 4.9v.153a2.779 2.779 0 004.106 2.372l.14-.076a5.028 5.028 0 016.69 1.793l.084.138a2.779 2.779 0 004.739 0l.085-.14a5.027 5.027 0 016.689-1.791l.141.077a2.779 2.779 0 004.106-2.373v-.15a5.025 5.025 0 014.9-4.9h.15a2.779 2.779 0 002.372-4.106l-.076-.141a5.028 5.028 0 011.79-6.689l.14-.086a2.779 2.779 0 000-4.74zm-1.114 2.92l-.14.086a7.159 7.159 0 00-2.551 9.526l.076.141a.645.645 0 01-.552.954h-.15a7.157 7.157 0 00-6.981 6.981v.15a.646.646 0 01-.953.552l-.141-.077a7.161 7.161 0 00-9.527 2.551l-.086.14a.645.645 0 01-1.1 0l-.085-.138a7.157 7.157 0 00-9.527-2.551l-.14.076a.646.646 0 01-.954-.551v-.152a7.157 7.157 0 00-6.98-6.981h-.152a.646.646 0 01-.553-.952l.078-.142a7.161 7.161 0 00-2.551-9.527l-.139-.085a.646.646 0 010-1.1l.14-.085a7.159 7.159 0 002.551-9.526l-.076-.141a.645.645 0 01.552-.954h.15a7.157 7.157 0 006.981-6.981v-.15a.646.646 0 01.953-.552l.141.077a7.16 7.16 0 009.527-2.551l.086-.14a.645.645 0 011.1 0l.085.138a7.16 7.16 0 009.527 2.55l.14-.076a.646.646 0 01.954.551v.152a7.157 7.157 0 006.98 6.981h.152a.646.646 0 01.553.952l-.078.142a7.161 7.161 0 002.551 9.527l.139.085a.647.647 0 010 1.1z"/><path class="bfa" d="M29.905 15.982a1.066 1.066 0 00-1.5.133l-6.242 7.449-2.873-2.871a1.066 1.066 0 00-1.508 0l-2.9 2.9a1.066 1.066 0 000 1.508l6.866 6.853a1.067 1.067 0 00.754.313h.046a1.066 1.066 0 00.771-.38l9.862-11.77a1.066 1.066 0 00-.133-1.5zm-7.476 13.64l-5.281-5.28 1.387-1.387 2.94 2.94a1.067 1.067 0 001.572-.069l6.3-7.524 1.5 1.26z"/><path class="bfa" d="M24 8a16 16 0 1016 16A16.018 16.018 0 0024 8zm0 29.867A13.867 13.867 0 1137.867 24 13.882 13.882 0 0124 37.867z"/></svg><svg viewBox="0 0 48 48" id="vision" xmlns="http://www.w3.org/2000/svg"><defs><style>.bga{fill:##8cc63f}</style></defs><path class="bga" d="M47.2 18.982h-4.08a19.572 19.572 0 00-2.055-4.951l2.886-2.887a.8.8 0 000-1.131l-5.964-5.966a.8.8 0 00-1.131 0L33.97 6.934a19.582 19.582 0 00-4.952-2.054V.8a.8.8 0 00-.8-.8h-8.436a.8.8 0 00-.8.8v4.08a19.582 19.582 0 00-4.952 2.057l-2.886-2.89a.8.8 0 00-1.131 0l-5.966 5.965a.8.8 0 000 1.131l2.886 2.887a19.572 19.572 0 00-2.053 4.952H.8a.8.8 0 00-.8.8v8.437a.8.8 0 00.8.8h4.08a19.572 19.572 0 002.055 4.951l-2.888 2.887a.8.8 0 000 1.131l5.966 5.965a.8.8 0 001.131 0l2.886-2.886a19.582 19.582 0 004.952 2.057V47.2a.8.8 0 00.8.8h8.435a.8.8 0 00.8-.8v-4.08a19.582 19.582 0 004.952-2.057l2.886 2.886a.8.8 0 001.131 0l5.966-5.965a.8.8 0 000-1.131l-2.886-2.887a19.572 19.572 0 002.053-4.948H47.2a.8.8 0 00.8-.8v-8.436a.8.8 0 00-.8-.8zm-.8 8.437h-3.9a.8.8 0 00-.779.622 18.072 18.072 0 01-2.336 5.625.8.8 0 00.111.991l2.765 2.766-4.834 4.834-2.765-2.765a.8.8 0 00-.992-.111 18.009 18.009 0 01-5.624 2.335.8.8 0 00-.623.78v3.9h-6.841V42.5a.8.8 0 00-.623-.78 18.009 18.009 0 01-5.624-2.335.8.8 0 00-.992.111l-2.765 2.765-4.834-4.839 2.765-2.766a.8.8 0 00.111-.991 18.072 18.072 0 01-2.336-5.625.8.8 0 00-.779-.622H1.6v-6.836h3.9a.8.8 0 00.779-.622 18.072 18.072 0 012.336-5.625.8.8 0 00-.111-.991l-2.76-2.766 4.834-4.834 2.765 2.765a.8.8 0 00.992.111 18.009 18.009 0 015.624-2.335.8.8 0 00.623-.78V1.6h6.835v3.9a.8.8 0 00.623.78 18.009 18.009 0 015.624 2.335.8.8 0 00.992-.111l2.765-2.765 4.834 4.834-2.765 2.766a.8.8 0 00-.111.991 18.072 18.072 0 012.336 5.625.8.8 0 00.779.622h3.9z"/><path class="bga" d="M24 8a16 16 0 1016 16A16 16 0 0024 8zm0 30.4A14.4 14.4 0 1138.4 24 14.4 14.4 0 0124 38.4z"/><path class="bga" d="M11.4 23.469a.8.8 0 000 1.062 16.457 16.457 0 0025.2 0 .8.8 0 000-1.062 16.457 16.457 0 00-25.2 0zm13.234-4.236c2.789.272 4.965 2.3 4.965 4.767s-2.176 4.5-4.965 4.767c-.212.009-.422.033-.635.033s-.423-.024-.635-.033C20.576 28.5 18.4 26.462 18.4 24s2.176-4.5 4.965-4.767c.212-.009.422-.033.635-.033s.423.024.635.033zm-6.673 1.292a5.776 5.776 0 000 6.95A15.978 15.978 0 0113.089 24a15.978 15.978 0 014.874-3.475zm12.075 6.95a5.776 5.776 0 000-6.95A15.978 15.978 0 0134.911 24a15.977 15.977 0 01-4.874 3.475z"/><path class="bga" d="M20.8 24a3.2 3.2 0 103.2-3.2 3.2 3.2 0 00-3.2 3.2zm4.8 0a1.6 1.6 0 11-1.6-1.6 1.6 1.6 0 011.6 1.6z"/></svg><svg viewBox="0 0 16 11.25" id="youtube" xmlns="http://www.w3.org/2000/svg"><defs><style>.bha{fill:##8cc63f}</style></defs><path class="bha" d="M15.666 1.76A2.01 2.01 0 0014.25.337 47.51 47.51 0 008 0a47.511 47.511 0 00-6.25.337A2.01 2.01 0 00.334 1.76 21.09 21.09 0 000 5.636a21.09 21.09 0 00.334 3.876 1.98 1.98 0 001.415 1.4A47.511 47.511 0 008 11.249a47.511 47.511 0 006.251-.337 1.98 1.98 0 001.415-1.4A21.09 21.09 0 0016 5.636a21.09 21.09 0 00-.334-3.876zm-9.3 6.255V3.257l4.184 2.379z"/></svg></svg>
