<svg viewBox="0 0 1920 1080" xmlns="http://www.w3.org/2000/svg"><path d="m0 0h1920v1080h-1920z" fill="#f7f7f7"/><path d="m288.98 61.2h-269.388a19.593 19.593 0 0 0 -19.592 19.593v200.817a19.593 19.593 0 0 0 19.592 19.59h269.388a19.593 19.593 0 0 0 19.593-19.592v-200.815a19.593 19.593 0 0 0 -19.593-19.593zm0 19.592v142.487l-38.611-35.1a14.689 14.689 0 0 0 -20.272.485l-39.077 39.067-77.049-92.031a14.693 14.693 0 0 0 -22.4-.152l-71.979 83.647v-138.402zm-83.265 51.429a26.938 26.938 0 1 1 26.938 26.938 26.935 26.935 0 0 1 -26.938-26.938z" opacity=".2" transform="translate(807 358.799)"/></svg>