<svg xmlns="http://www.w3.org/2000/svg" width="19" height="19" viewBox="0 0 26.703 22.253">
  <g id="camera" transform="translate(0 -42.667)">
    <g id="Group_1018" data-name="Group 1018" transform="translate(0 42.667)">
      <g id="Group_1017" data-name="Group 1017">
        <circle id="Ellipse_114" data-name="Ellipse 114" cx="5.563" cy="5.563" r="5.563" transform="translate(7.788 6.676)" fill="#b1b1b1"/>
        <path id="Path_926" data-name="Path 926" d="M24.478,46H20.949a1.66,1.66,0,0,1-1.181-.489l-2.034-2.034a2.764,2.764,0,0,0-1.967-.815H10.936a2.764,2.764,0,0,0-1.967.815L6.934,45.516A1.66,1.66,0,0,1,5.754,46H2.225A2.227,2.227,0,0,0,0,48.23V62.694A2.227,2.227,0,0,0,2.225,64.92H24.478A2.227,2.227,0,0,0,26.7,62.694V48.23A2.227,2.227,0,0,0,24.478,46ZM13.352,61.582a6.676,6.676,0,1,1,6.676-6.676A6.683,6.683,0,0,1,13.352,61.582Zm8.9-10.014a1.113,1.113,0,1,1,1.113-1.113A1.114,1.114,0,0,1,22.253,51.568Z" transform="translate(0 -42.667)" fill="#b1b1b1"/>
      </g>
    </g>
  </g>
</svg>
