<svg id="deal" xmlns="http://www.w3.org/2000/svg" width="40.899" height="40.899" viewBox="0 0 40.899 40.899">
  <g id="Group_1035" data-name="Group 1035" transform="translate(0 0)">
    <g id="Group_1034" data-name="Group 1034">
      <path id="Path_936" data-name="Path 936" d="M112.312,136.992a.618.618,0,0,0-.895,0l-2.492,2.492-.639-.639a.633.633,0,0,0-.895.895l1.086,1.086a.69.69,0,0,0,.447.192.58.58,0,0,0,.447-.192l2.94-2.94A.617.617,0,0,0,112.312,136.992Z" transform="translate(-98.637 -125.872)" fill="#0683f1"/>
      <path id="Path_937" data-name="Path 937" d="M111.418,208.992l-2.492,2.492-.639-.639a.633.633,0,0,0-.895.895l1.086,1.086a.69.69,0,0,0,.447.192.58.58,0,0,0,.447-.192l2.94-2.94a.633.633,0,0,0-.895-.895Z" transform="translate(-98.637 -192.121)" fill="#0683f1"/>
      <path id="Path_938" data-name="Path 938" d="M304.639,272a.639.639,0,1,0,0,1.278h1.278a.639.639,0,1,0,0-1.278Z" transform="translate(-279.716 -250.272)" fill="#0683f1"/>
      <path id="Path_939" data-name="Path 939" d="M28.757,272a.639.639,0,1,0,0,1.278h3.834v9.138l-5.56,2.237-6.391-7.03-4.218,2.109a2.858,2.858,0,0,1-2.173.128l-.831-.256a.343.343,0,0,1-.192-.256.255.255,0,0,1,.128-.256l5.432-3.962a.485.485,0,0,0,.256-.128.063.063,0,0,1,.064-.064l2.3-1.661h.959a.639.639,0,1,0,0-1.278H20.9l-2.3,1.661L16.871,272H0v11.5H3.834a.639.639,0,0,0,0-1.278H1.278v-8.947H7.669v8.947H6.391a.639.639,0,0,0,0,1.278H8.116l8.755,6.9a2.29,2.29,0,0,0,1.534.575,2.043,2.043,0,0,0,.895-.192,5.528,5.528,0,0,0,.639-.447l.7.7c.064.064.064.064.128.064l.064.064h.256a.483.483,0,0,0,.256-.064.063.063,0,0,0,.064-.064c.064,0,.064-.064.128-.064l5.688-5.048,6.2-2.492H40.9V272Zm-3.579,14.059-5.56-5.56a.633.633,0,0,0-.895.895l5.5,5.5-1.086.959L17.7,282.417a.633.633,0,0,0-.895.895l5.368,5.368-1.086.959-5.3-5.3a.633.633,0,1,0-.895.895l4.154,4.154c-.128.064-.192.128-.32.192a1.143,1.143,0,0,1-1.086-.192l-8.691-6.838v-9.266H16.36l1.15,1.15-4.921,3.643a1.72,1.72,0,0,0-.639,1.534,1.59,1.59,0,0,0,1.086,1.278l.767.256a4.291,4.291,0,0,0,3.2-.256l3.387-1.662,5.624,6.2Zm14.443-3.834H33.87v-8.947h5.751Z" transform="translate(0 -250.272)" fill="#0683f1"/>
      <path id="Path_940" data-name="Path 940" d="M153.917,80.639a.6.6,0,0,0-.639-.639h-.639a.639.639,0,1,0,0,1.278h.639A.6.6,0,0,0,153.917,80.639Z" transform="translate(-139.858 -73.609)" fill="#0683f1"/>
      <path id="Path_941" data-name="Path 941" d="M184.639,81.278h.639a.639.639,0,1,0,0-1.278h-.639a.639.639,0,1,0,0,1.278Z" transform="translate(-169.302 -73.609)" fill="#0683f1"/>
      <path id="Path_942" data-name="Path 942" d="M120.639,81.278h.639a.639.639,0,1,0,0-1.278h-.639a.639.639,0,1,0,0,1.278Z" transform="translate(-110.414 -73.609)" fill="#0683f1"/>
      <path id="Path_943" data-name="Path 943" d="M64.639,21.089a.64.64,0,0,0,.639-.639V1.278H87.006V7.03a.6.6,0,0,0,.639.639H93.4V19.811a.6.6,0,0,0,.639.639.64.64,0,0,0,.639-.639V7.03a.58.58,0,0,0-.192-.447L88.092.192A.58.58,0,0,0,87.645,0H64.639A.64.64,0,0,0,64,.639V20.45A.6.6,0,0,0,64.639,21.089ZM88.284,2.237l4.154,4.154H88.284Z" transform="translate(-58.888 0)" fill="#0683f1"/>
      <path id="Path_944" data-name="Path 944" d="M129.586,48.639a.6.6,0,0,0-.639-.639h-8.308a.639.639,0,0,0,0,1.278h8.308A.6.6,0,0,0,129.586,48.639Z" transform="translate(-110.414 -44.166)" fill="#0683f1"/>
      <path id="Path_945" data-name="Path 945" d="M305.278,177.278a.639.639,0,1,0,0-1.278h-.639a.639.639,0,1,0,0,1.278Z" transform="translate(-279.716 -161.941)" fill="#0683f1"/>
      <path id="Path_946" data-name="Path 946" d="M337.278,177.278a.639.639,0,1,0,0-1.278h-.639a.639.639,0,1,0,0,1.278Z" transform="translate(-309.16 -161.941)" fill="#0683f1"/>
      <path id="Path_947" data-name="Path 947" d="M273.278,177.278a.639.639,0,0,0,0-1.278h-.639a.639.639,0,0,0,0,1.278Z" transform="translate(-250.272 -161.941)" fill="#0683f1"/>
      <path id="Path_948" data-name="Path 948" d="M222.059,144h-13.42a.639.639,0,0,0,0,1.278h13.42a.639.639,0,1,0,0-1.278Z" transform="translate(-191.385 -132.497)" fill="#0683f1"/>
      <path id="Path_949" data-name="Path 949" d="M208.639,177.278h3.2a.639.639,0,0,0,0-1.278h-3.2a.639.639,0,0,0,0,1.278Z" transform="translate(-191.385 -161.941)" fill="#0683f1"/>
      <path id="Path_950" data-name="Path 950" d="M222.7,224.639a.6.6,0,0,0-.639-.639h-13.42a.639.639,0,0,0,0,1.278h13.42A.6.6,0,0,0,222.7,224.639Z" transform="translate(-191.385 -206.107)" fill="#0683f1"/>
    </g>
  </g>
</svg>
