<svg xmlns="http://www.w3.org/2000/svg" xmlns:xlink="http://www.w3.org/1999/xlink" width="36.986" height="36.986" viewBox="0 0 36.986 36.986">
  <defs>
    <clipPath id="clip-path">
      <rect width="36.986" height="36.986" fill="none"/>
    </clipPath>
  </defs>
  <g id="facebook" clip-path="url(#clip-path)">
    <path id="Subtraction_3" data-name="Subtraction 3" d="M18.493,36.986a18.41,18.41,0,0,1-10.34-3.159,18.542,18.542,0,0,1-6.7-8.137,18.467,18.467,0,0,1,1.7-17.537,18.544,18.544,0,0,1,8.136-6.7,18.47,18.47,0,0,1,17.538,1.7,18.592,18.592,0,0,1,5,5A18.488,18.488,0,0,1,18.493,36.986Zm-3.65-17.77V31.305h5V19.217h3.3l.437-4.245H19.843v-2.5a1.138,1.138,0,0,1,.365-.93,1.111,1.111,0,0,1,.7-.227H23.59V7.189l-3.7-.015a5.807,5.807,0,0,0-2.522.511,4.1,4.1,0,0,0-1.541,1.273,5.609,5.609,0,0,0-.981,3.26v2.749H12.465v4.248Z" fill="#fff"/>
  </g>
</svg>
