<svg xmlns="http://www.w3.org/2000/svg" width="38.736" height="35.302" viewBox="0 0 38.736 35.302">
  <g id="logout" transform="translate(38.736 35.302) rotate(180)">
    <path id="Path_951" data-name="Path 951" d="M18.213,0H3.944A3.92,3.92,0,0,0,0,3.9v3.8a.744.744,0,0,0,1.489,0V3.9A2.429,2.429,0,0,1,3.934,1.489H18.213a2.4,2.4,0,0,1,2.415,2.375V31.4a2.4,2.4,0,0,1-2.377,2.414H3.944a2.43,2.43,0,0,1-2.455-2.4V27.688a.744.744,0,0,0-1.489,0V31.4a3.92,3.92,0,0,0,3.938,3.9H18.213a3.886,3.886,0,0,0,3.9-3.867V3.9A3.885,3.885,0,0,0,18.249,0h-.035Zm0,0" transform="translate(16.619 0)" fill="#fff"/>
    <path id="Path_952" data-name="Path 952" d="M2.561,9.535H28.5a.744.744,0,0,0,0-1.489H2.4L8.309,1.232A.744.744,0,1,0,7.185.257L.287,8.2a.744.744,0,0,0,.042,1.2L7.221,16.3a.744.744,0,0,0,1.053-1.053Zm0,0" transform="translate(0 8.86)" fill="#fff"/>
  </g>
</svg>
