<svg xmlns="http://www.w3.org/2000/svg" width="23.994" height="18.277" viewBox="0 0 23.994 18.277"><g transform="translate(1.205 0)"><g transform="translate(0 0)"><path d="M46.4,61H26.624a2.084,2.084,0,0,0-.9.211L36.466,71.956l2.408-2.314h0l8.43-8.43A2.084,2.084,0,0,0,46.4,61Z" transform="translate(-25.721 -61)"/></g></g><g transform="translate(15.85 1.206)"><g transform="translate(0 0)"><path d="M346.146,86.728l-7.933,7.933,7.933,7.933a2.084,2.084,0,0,0,.211-.9V87.631A2.083,2.083,0,0,0,346.146,86.728Z" transform="translate(-338.213 -86.728)"/></g></g><g transform="translate(0 1.205)"><g transform="translate(0 0)"><path d="M.211,86.721a2.084,2.084,0,0,0-.211.9v14.059a2.085,2.085,0,0,0,.211.9l7.933-7.933Z" transform="translate(0 -86.721)"/></g></g><g transform="translate(1.205 10.133)"><g transform="translate(0 0)"><path d="M39.365,277.211l-2.409,2.315a.7.7,0,0,1-.994,0l-2.315-2.315-7.933,7.933a2.085,2.085,0,0,0,.9.212H46.394a2.084,2.084,0,0,0,.9-.211Z" transform="translate(-25.714 -277.211)"/></g></g></svg>