<svg xmlns="http://www.w3.org/2000/svg" xmlns:xlink="http://www.w3.org/1999/xlink" width="46" height="45" viewBox="0 0 46 45">
  <defs>
    <clipPath id="clip-path">
      <rect id="Rectangle_381" data-name="Rectangle 381" width="46" height="45" transform="translate(0.115 0.297)" fill="#fff"/>
    </clipPath>
  </defs>
  <g id="Mask_Group_6" data-name="Mask Group 6" transform="translate(-0.115 -0.297)" clip-path="url(#clip-path)">
    <g id="perfume" transform="translate(0 0.045)">
      <g id="Group_879" data-name="Group 879" transform="translate(0 0)">
        <path id="Path_895" data-name="Path 895" d="M40.315,10.914v-1.5a6.7,6.7,0,0,0-6.689-6.689H21.5V1.387A1.337,1.337,0,0,0,20.158.049H14.806a1.337,1.337,0,0,0-1.338,1.338V2.725H12.13a1.338,1.338,0,1,0,0,2.676h1.338V8.076H12.13a1.337,1.337,0,0,0-1.338,1.338V19.437C6.146,22.819,0,26.994,0,36.172v2.854a6.62,6.62,0,0,0,6.689,6.6H28.274a6.62,6.62,0,0,0,6.689-6.6V36.172c0-8.741-5.716-12.985-10.792-16.728V9.414a1.337,1.337,0,0,0-1.338-1.338H21.5V5.4h12.13a4.018,4.018,0,0,1,4.014,4.014v1.5c-3.05.746-5.352,3.988-5.352,7.865,0,4.427,3,8.027,6.689,8.027s6.689-3.6,6.689-8.027C45.667,14.9,43.366,11.66,40.315,10.914Zm-21.5-.162H21.5v8.027H18.82ZM16.144,32.531a11.4,11.4,0,0,0-10.526.584l-2.834,1.7c.584-7.058,5.572-10.263,9.785-13.361h3.575Zm0-13.751H13.468V10.752h2.676Zm6.25,2.676c3.6,2.652,7.81,5.39,9.3,10.572l-3.72,2.232a8.7,8.7,0,0,1-9.151-.153V21.455Z" transform="translate(0 -0.049)" fill="#fff"/>
      </g>
    </g>
  </g>
</svg>
