<svg xmlns="http://www.w3.org/2000/svg" xmlns:xlink="http://www.w3.org/1999/xlink" width="45" height="46" viewBox="0 0 45 46">
  <defs>
    <clipPath id="clip-path">
      <rect id="Rectangle_374" data-name="Rectangle 374" width="45" height="46" transform="translate(0.471 -0.31)" fill="#fff"/>
    </clipPath>
  </defs>
  <g id="Mask_Group_1" data-name="Mask Group 1" transform="translate(-0.471 0.31)" clip-path="url(#clip-path)">
    <g id="car" transform="translate(0 12.383)">
      <g id="Group_864" data-name="Group 864" transform="translate(6.089 13.29)">
        <g id="Group_863" data-name="Group 863">
          <path id="Path_883" data-name="Path 883" d="M10.472,28.109a3.806,3.806,0,1,0,3.806,3.806A3.81,3.81,0,0,0,10.472,28.109Zm0,6.089a2.283,2.283,0,1,1,2.283-2.283A2.286,2.286,0,0,1,10.472,34.2Z" transform="translate(-6.667 -28.109)" fill="#fff"/>
        </g>
      </g>
      <g id="Group_866" data-name="Group 866" transform="translate(0 0)">
        <g id="Group_865" data-name="Group 865">
          <path id="Path_884" data-name="Path 884" d="M44.906,26.848V22.281a.761.761,0,0,0-.521-.722l-4.294-1.432a11.683,11.683,0,0,0-8.754-6.207l-.027,0c-9.073-1.254-15.885.792-20.259,6.085-3.255.047-6.578.728-8.533,1.979A3.726,3.726,0,0,0,.849,24.958l-.088,1.89A.761.761,0,0,0,0,27.609v3.044a.761.761,0,0,0,.761.761H3.806a.766.766,0,0,0,.761-.769s0-.008,0-.012a5.327,5.327,0,0,1,10.655.021.692.692,0,0,0,.761.761h13.7a.766.766,0,0,0,.761-.769s0-.008,0-.012a5.327,5.327,0,0,1,10.655.021.692.692,0,0,0,.761.761h3.044a.761.761,0,0,0,.761-.761V27.609A.761.761,0,0,0,44.906,26.848Zm-20.55-7.231a.381.381,0,0,1-.381.381H14.049a.383.383,0,0,1-.252-.669,16.719,16.719,0,0,1,10.139-4.15.388.388,0,0,1,.419.384Zm9.144,0a.381.381,0,0,1-.381.377H26.259a.381.381,0,0,1-.381-.381V15.462a.382.382,0,0,1,.378-.384,35,35,0,0,1,4.831.345,12.822,12.822,0,0,1,2.2.581.381.381,0,0,1,.247.364ZM37.472,20H35.4a.381.381,0,0,1-.381-.384l.02-2.063a.384.384,0,0,1,.615-.3,10.064,10.064,0,0,1,2.117,2.13A.383.383,0,0,1,37.472,20Z" transform="translate(0 -13.558)" fill="#fff"/>
        </g>
      </g>
      <g id="Group_868" data-name="Group 868" transform="translate(31.967 13.29)">
        <g id="Group_867" data-name="Group 867">
          <path id="Path_885" data-name="Path 885" d="M38.806,28.109a3.806,3.806,0,1,0,3.806,3.806A3.81,3.81,0,0,0,38.806,28.109Zm0,6.089a2.283,2.283,0,1,1,2.283-2.283A2.286,2.286,0,0,1,38.806,34.2Z" transform="translate(-35 -28.109)" fill="#fff"/>
        </g>
      </g>
    </g>
  </g>
</svg>
