<svg xmlns="http://www.w3.org/2000/svg" xmlns:xlink="http://www.w3.org/1999/xlink" width="46" height="46" viewBox="0 0 46 46">
  <defs>
    <clipPath id="clip-path">
      <rect id="Rectangle_380" data-name="Rectangle 380" width="46" height="46" transform="translate(0.115 -0.097)" fill="#fff"/>
    </clipPath>
  </defs>
  <g id="Mask_Group_9" data-name="Mask Group 9" transform="translate(-0.115 0.097)" clip-path="url(#clip-path)">
    <g id="surface1" transform="translate(0 0)">
      <path id="Path_901" data-name="Path 901" d="M42.707,48.933a4.933,4.933,0,0,0,6.353-6.353Zm0,0" transform="translate(-3.711 -3.69)" fill="#fff"/>
      <g id="Group_895" data-name="Group 895" transform="translate(0 0)">
        <path id="Path_899" data-name="Path 899" d="M6.042,8.18a.815.815,0,0,1,.377.214L18.047,20.021l2.1-2.1L8.523,6.29a.816.816,0,0,1-.214-.378L7.577,2.994,2.726.221.35,2.6,3.125,7.451Zm0,0" transform="translate(-0.04 -0.019)" fill="#fff"/>
        <path id="Path_900" data-name="Path 900" d="M16.352,34.684,34.8,16.232a.814.814,0,0,1,.773-.214,8.093,8.093,0,0,0,10.1-7.882c0-.153,0-.307-.014-.462l-4.291,4.291a.813.813,0,0,1-.832.2l-4.881-1.627a.812.812,0,0,1-.515-.514L33.516,5.139a.812.812,0,0,1,.2-.832L38,.016A8.1,8.1,0,0,0,29.659,10.1a.813.813,0,0,1-.214.773L10.995,29.326a.821.821,0,0,1-.773.214,8.015,8.015,0,0,0-1.967-.253,8.19,8.19,0,1,0,7.882,6.169A.815.815,0,0,1,16.352,34.684Zm-6.117,5.993H6.276L4.323,37.423l1.953-3.255h3.96l1.953,3.255Zm3.14-9.524,17.9-17.9,1.15,1.15-17.9,17.9Zm0,0" transform="translate(-0.011 0)" fill="#fff"/>
        <path id="Path_902" data-name="Path 902" d="M46.434,39.32,37.3,30.18A2.539,2.539,0,0,1,33.718,26.6l-1.294-1.3-6.985,6.985,1.3,1.3a2.539,2.539,0,0,1,3.579,3.575L39.449,46.3c.1.1.2.192.311.282l6.956-6.956C46.626,39.524,46.534,39.42,46.434,39.32Zm-4.823,3.312L33.476,34.5l1.15-1.15,8.135,8.135Zm0,0" transform="translate(-2.215 -2.193)" fill="#fff"/>
      </g>
    </g>
  </g>
</svg>
