<svg xmlns="http://www.w3.org/2000/svg" xmlns:xlink="http://www.w3.org/1999/xlink" width="45" height="46" viewBox="0 0 45 46">
  <defs>
    <clipPath id="clip-path">
      <rect id="Rectangle_376" data-name="Rectangle 376" width="45" height="46" transform="translate(0.471 -0.097)" fill="#fff"/>
    </clipPath>
  </defs>
  <g id="Mask_Group_7" data-name="Mask Group 7" transform="translate(-0.471 0.097)" clip-path="url(#clip-path)">
    <path id="cat" d="M39.988,34a2.983,2.983,0,0,1-2.98-2.98v-.365a2.983,2.983,0,0,1,2.98-2.98h4.088v-2.68H39.988a5.666,5.666,0,0,0-5.66,5.66v.365a5.666,5.666,0,0,0,5.66,5.66,2.983,2.983,0,0,1,2.98,2.98v.351a2.983,2.983,0,0,1-2.98,2.98H33.042V39.028a23.246,23.246,0,0,0-6.235-15.871l-7.548-8.125V12.527A8.9,8.9,0,0,0,17,6.63a8.4,8.4,0,0,0-4.57-2.7c-.022-.077-.045-.153-.067-.228A4.978,4.978,0,0,0,6.269.129l-.01,0A1.294,1.294,0,0,1,6.4.11,1.68,1.68,0,0,0,6.022.2h0L5.968.221,5.9.25,4.876.655l.154.51L5.351,5.3,4.275,6.462c-.521.395-1.337,1.282-2.639,3.9C.9,11.843.358,13.181.335,13.237L0,14.061l2.593,2.594.2.2a4.4,4.4,0,0,0,3.548,1.719h.19v2.437a11.448,11.448,0,0,0,.588,3.627l2.092,6.274V42.983H4.738v2.68l35.25,0a5.666,5.666,0,0,0,5.66-5.66v-.351A5.666,5.666,0,0,0,39.988,34ZM25.4,32.14H23.442a6.522,6.522,0,0,0-6.514,6.514V43.11h-2.68V38.654a9.2,9.2,0,0,1,9.194-9.194H25.4Zm0,0" transform="translate(0.01 0)" fill="#fff"/>
  </g>
</svg>
