<svg xmlns="http://www.w3.org/2000/svg" xmlns:xlink="http://www.w3.org/1999/xlink" width="46" height="45" viewBox="0 0 46 45">
  <defs>
    <clipPath id="clip-path">
      <rect id="Rectangle_378" data-name="Rectangle 378" width="46" height="45" transform="translate(-0.207 0.297)" fill="#fff"/>
    </clipPath>
  </defs>
  <g id="Mask_Group_5" data-name="Mask Group 5" transform="translate(0.207 -0.297)" clip-path="url(#clip-path)">
    <g id="comfortable" transform="translate(0.001)">
      <g id="Group_878" data-name="Group 878" transform="translate(0)">
        <path id="Path_894" data-name="Path 894" d="M45.616,23.566A7.6,7.6,0,0,0,39.185,16.9c-.177-.025-.356,0-.535-.013l.518-5.358A10.009,10.009,0,0,0,36.9,3.448,9.787,9.787,0,0,0,29.454,0H16.338A9.78,9.78,0,0,0,8.893,3.448a9.919,9.919,0,0,0-2.287,7.94l.451,5.5c-.192.011-.382-.011-.575.013A7.6,7.6,0,0,0,.051,23.566a7.705,7.705,0,0,0,2.032,6.2A10.1,10.1,0,0,1,5.055,36.68v.771a4.4,4.4,0,0,0,4.376,4.411h.084v1.9a1.9,1.9,0,1,0,3.806,0v-1.9H32.348v1.9a1.9,1.9,0,1,0,3.806,0V41.852a4.575,4.575,0,0,0,4.458-4.584V36.68a10.1,10.1,0,0,1,2.97-6.911A7.707,7.707,0,0,0,45.616,23.566ZM30.446,29.731a.714.714,0,0,1-.714.714h-13.8a.714.714,0,0,1-.714-.714V26.639H30.446Zm4.949-18.682-.641,6.612a7.585,7.585,0,0,0-2.826,2.569,7.919,7.919,0,0,0-1.239,2.6H14.98a7.927,7.927,0,0,0-1.239-2.6,7.571,7.571,0,0,0-2.8-2.555l-.558-6.743a6.208,6.208,0,0,1,1.4-5.016,5.988,5.988,0,0,1,4.551-2.112H29.454a5.992,5.992,0,0,1,4.553,2.112A6.3,6.3,0,0,1,35.395,11.049Z" transform="translate(-0.001)" fill="#fff"/>
      </g>
    </g>
  </g>
</svg>
