<svg xmlns="http://www.w3.org/2000/svg" width="42.611" height="36.519" viewBox="0 0 42.611 36.519">
  <g id="menu" transform="translate(0.001 5.207)">
    <path id="Path_953" data-name="Path 953" d="M41.363,229.359H1.247c-.689,0-1.247.787-1.247,1.756s.558,1.756,1.247,1.756H41.363c.689,0,1.247-.785,1.247-1.756S42.052,229.359,41.363,229.359Zm0,0" transform="translate(0 -201.558)" fill="#fff"/>
    <path id="Path_954" data-name="Path 954" d="M41.363,112.074H1.247c-.689,0-1.247.787-1.247,1.756s.558,1.756,1.247,1.756H41.363c.689,0,1.247-.786,1.247-1.756S42.052,112.074,41.363,112.074Zm0,0" transform="translate(0 -100.777)" fill="#fff"/>
    <path id="Path_955" data-name="Path 955" d="M41.363-5.207H1.247C.558-5.207,0-4.42,0-3.451S.558-1.7,1.247-1.7H41.363c.689,0,1.247-.786,1.247-1.756s-.558-1.756-1.247-1.756Zm0,0" fill="#fff"/>
  </g>
</svg>
