<svg id="message" xmlns="http://www.w3.org/2000/svg" width="40.899" height="40.899" viewBox="0 0 40.899 40.899">
  <path id="Path_935" data-name="Path 935" d="M34.906,5.994A20.448,20.448,0,0,0,2.719,30.642L.056,39.268a1.2,1.2,0,0,0,1.52,1.491L9.941,38a20.449,20.449,0,0,0,24.965-32ZM10.864,14.542a1.2,1.2,0,1,1-1.2,1.2A1.2,1.2,0,0,1,10.864,14.542Zm14.376,11.9H10.864a1.2,1.2,0,1,1,0-2.4H25.24a1.2,1.2,0,1,1,0,2.4Zm4.792,0a1.2,1.2,0,1,1,1.2-1.2A1.2,1.2,0,0,1,30.032,26.442Zm0-4.792H10.864a1.2,1.2,0,1,1,0-2.4H30.032a1.2,1.2,0,1,1,0,2.4Zm0-4.792H15.656a1.2,1.2,0,1,1,0-2.4H30.032a1.2,1.2,0,1,1,0,2.4Z" transform="translate(0)" fill="#3ca175"/>
</svg>
