<svg xmlns="http://www.w3.org/2000/svg" width="34.404" height="34.001" viewBox="0 0 34.404 34.001">
  <g id="money" transform="translate(0 -3)">
    <g id="Group_929" data-name="Group 929" transform="translate(20.156 20.014)">
      <g id="Group_928" data-name="Group 928">
        <path id="Path_914" data-name="Path 914" d="M302.776,261.05a1.293,1.293,0,1,1,1.478-1.279.672.672,0,1,0,1.344,0,2.674,2.674,0,0,0-2.15-2.548v-.349a.672.672,0,1,0-1.344,0v.349a2.674,2.674,0,0,0-2.15,2.548,2.731,2.731,0,0,0,2.822,2.623,1.293,1.293,0,1,1-1.478,1.28.672.672,0,0,0-1.344,0,2.674,2.674,0,0,0,2.15,2.548v.29a.672.672,0,0,0,1.344,0v-.29a2.674,2.674,0,0,0,2.15-2.548A2.731,2.731,0,0,0,302.776,261.05Z" transform="translate(-299.954 -256.201)" fill="#fff"/>
      </g>
    </g>
    <g id="Group_931" data-name="Group 931" transform="translate(25.798 17.634)">
      <g id="Group_930" data-name="Group 930">
        <path id="Path_915" data-name="Path 915" d="M388.464,224.016a8.755,8.755,0,0,0-3.576-3.165.672.672,0,1,0-.582,1.211,7.4,7.4,0,0,1,3.332,10.133.672.672,0,1,0,1.186.631,8.745,8.745,0,0,0-.36-8.81Z" transform="translate(-383.924 -220.785)" fill="#fff"/>
      </g>
    </g>
    <g id="Group_933" data-name="Group 933" transform="translate(23.317 16.842)">
      <g id="Group_932" data-name="Group 932">
        <path id="Path_916" data-name="Path 916" d="M347.717,209h-.045a.672.672,0,1,0,0,1.344h.042a.672.672,0,0,0,0-1.344Z" transform="translate(-347 -209.001)" fill="#fff"/>
      </g>
    </g>
    <g id="Group_935" data-name="Group 935" transform="translate(14.246 21.123)">
      <g id="Group_934" data-name="Group 934">
        <path id="Path_917" data-name="Path 917" d="M217.539,283.831a7.4,7.4,0,0,1-3.332-10.133.672.672,0,0,0-1.186-.631,8.739,8.739,0,0,0,3.936,11.975.672.672,0,1,0,.582-1.211Z" transform="translate(-212.002 -272.711)" fill="#fff"/>
      </g>
    </g>
    <g id="Group_937" data-name="Group 937" transform="translate(21.259 32.969)">
      <g id="Group_936" data-name="Group 936">
        <path id="Path_918" data-name="Path 918" d="M317.092,449h-.039a.672.672,0,0,0-.006,1.344h.045a.672.672,0,1,0,0-1.344Z" transform="translate(-316.378 -448.999)" fill="#fff"/>
      </g>
    </g>
    <g id="Group_939" data-name="Group 939" transform="translate(0 3)">
      <g id="Group_938" data-name="Group 938" transform="translate(0 0)">
        <path id="Path_919" data-name="Path 919" d="M26.032,14.569a3.085,3.085,0,0,0-.3-.549h1.749a3.091,3.091,0,1,0,0-6.182H22.1A3.089,3.089,0,0,0,19.554,3H3.091a3.091,3.091,0,0,0,0,6.182H8.472a3.082,3.082,0,0,0,0,3.494H6.72A3.089,3.089,0,0,0,4.8,18.186a3.085,3.085,0,0,0,0,4.838,3.085,3.085,0,0,0,0,4.838,3.089,3.089,0,0,0,1.921,5.51h7.919a11.421,11.421,0,1,0,11.394-18.8Zm1.451-5.387a1.747,1.747,0,1,1,0,3.494H11.02a1.747,1.747,0,0,1,0-3.494ZM3.091,7.838a1.747,1.747,0,1,1,0-3.494H19.554a1.747,1.747,0,0,1,0,3.494ZM6.72,14.02H23.182a1.746,1.746,0,0,1,.762.176c-.318-.027-.639-.041-.964-.041a11.388,11.388,0,0,0-8.084,3.36H6.72a1.747,1.747,0,1,1,0-3.494Zm0,4.838h7.03a11.391,11.391,0,0,0-1.727,3.494H6.72a1.747,1.747,0,1,1,0-3.494Zm0,4.838h4.994a11.432,11.432,0,0,0-.041,3.494H6.72a1.747,1.747,0,1,1,0-3.494Zm0,8.332a1.747,1.747,0,0,1,0-3.494h5.227a11.378,11.378,0,0,0,1.612,3.494Zm16.261,3.629A10.079,10.079,0,1,1,33.06,25.578,10.091,10.091,0,0,1,22.981,35.657Z" transform="translate(0 -3)" fill="#fff"/>
      </g>
    </g>
  </g>
</svg>
