<svg id="speaker_1_" data-name="speaker (1)" xmlns="http://www.w3.org/2000/svg" width="43.185" height="48.947" viewBox="0 0 43.185 48.947">
  <g id="Group_1021" data-name="Group 1021" transform="translate(17.784 0.392)">
    <g id="Group_1020" data-name="Group 1020">
      <path id="Path_928" data-name="Path 928" d="M240.15,24.031,221.06,4.938A2.869,2.869,0,1,0,217,8.995l19.093,19.092a2.868,2.868,0,0,0,4.056-4.056Z" transform="translate(-216.163 -4.1)" fill="#2d91e8"/>
    </g>
  </g>
  <g id="Group_1023" data-name="Group 1023" transform="translate(10.263 7.926)">
    <g id="Group_1022" data-name="Group 1022" transform="translate(0)">
      <path id="Path_929" data-name="Path 929" d="M144.437,82.9l-.144.72a30.827,30.827,0,0,1-6.8,13.771l10.387,10.387a30.725,30.725,0,0,1,13.7-6.866l.722-.144Z" transform="translate(-137.494 -82.905)" fill="#2d91e8"/>
    </g>
  </g>
  <g id="Group_1025" data-name="Group 1025" transform="translate(0 24.568)">
    <g id="Group_1024" data-name="Group 1024" transform="translate(0)">
      <path id="Path_930" data-name="Path 930" d="M38.5,256.989l-7.1,7.1a4.3,4.3,0,0,0,0,6.085l4.056,4.056a4.3,4.3,0,0,0,6.085,0l7.1-7.1Zm1.014,11.154a1.434,1.434,0,0,1-2.028-2.028l2.028-2.028a1.434,1.434,0,1,1,2.028,2.028Z" transform="translate(-30.136 -256.989)" fill="#2d91e8"/>
    </g>
  </g>
  <g id="Group_1027" data-name="Group 1027" transform="translate(15.456 33.085)">
    <g id="Group_1026" data-name="Group 1026" transform="translate(0)">
      <path id="Path_931" data-name="Path 931" d="M200.843,355.559l1.951-1.951a4.3,4.3,0,0,0,0-6.083l-1.449-1.45a27.157,27.157,0,0,0-2.309,1.746l1.73,1.733a1.431,1.431,0,0,1,0,2.026l-1.983,1.983-2.914-2.823-4.056,4.056,6.506,6.3a2.868,2.868,0,0,0,4.054-4.058Z" transform="translate(-191.813 -346.075)" fill="#2d91e8"/>
    </g>
  </g>
  <g id="Group_1029" data-name="Group 1029" transform="translate(28.845)">
    <g id="Group_1028" data-name="Group 1028" transform="translate(0)">
      <path id="Path_932" data-name="Path 932" d="M333.3,0a1.433,1.433,0,0,0-1.434,1.434V4.3a1.434,1.434,0,1,0,2.868,0V1.434A1.433,1.433,0,0,0,333.3,0Z" transform="translate(-331.864 0)" fill="#2d91e8"/>
    </g>
  </g>
  <g id="Group_1031" data-name="Group 1031" transform="translate(37.449 11.472)">
    <g id="Group_1030" data-name="Group 1030">
      <path id="Path_933" data-name="Path 933" d="M426.166,120H423.3a1.434,1.434,0,0,0,0,2.868h2.868a1.434,1.434,0,1,0,0-2.868Z" transform="translate(-421.864 -120)" fill="#2d91e8"/>
    </g>
  </g>
  <g id="Group_1033" data-name="Group 1033" transform="translate(34.581 2.868)">
    <g id="Group_1032" data-name="Group 1032" transform="translate(0)">
      <path id="Path_934" data-name="Path 934" d="M397.18,30.42a1.434,1.434,0,0,0-2.028,0l-2.868,2.868a1.434,1.434,0,0,0,2.028,2.028l2.868-2.868A1.434,1.434,0,0,0,397.18,30.42Z" transform="translate(-391.864 -30)" fill="#2d91e8"/>
    </g>
  </g>
</svg>
