<svg xmlns="http://www.w3.org/2000/svg" xmlns:xlink="http://www.w3.org/1999/xlink" width="36.646" height="36.646" viewBox="0 0 36.646 36.646">
  <defs>
    <clipPath id="clip-path">
      <rect width="36.646" height="36.646" fill="none"/>
    </clipPath>
  </defs>
  <g id="Symbol_23_6" data-name="Symbol 23 – 6" clip-path="url(#clip-path)">
    <path id="Subtraction_5" data-name="Subtraction 5" d="M18.323,36.646A18.238,18.238,0,0,1,8.079,33.517,18.376,18.376,0,0,1,1.44,25.455,18.3,18.3,0,0,1,3.129,8.079,18.377,18.377,0,0,1,11.191,1.44,18.3,18.3,0,0,1,28.568,3.129a18.377,18.377,0,0,1,6.638,8.062,18.3,18.3,0,0,1-1.689,17.377,18.376,18.376,0,0,1-8.062,6.638A18.209,18.209,0,0,1,18.323,36.646Zm4.35-19.32a1.929,1.929,0,0,1,1.7.825,3.823,3.823,0,0,1,.514,2.153v7.048h4.38V19.8a8.381,8.381,0,0,0-.383-2.633,5.038,5.038,0,0,0-1.058-1.848,4.741,4.741,0,0,0-3.6-1.447,4.518,4.518,0,0,0-2.628.752,4.944,4.944,0,0,0-1.319,1.424V14.179H15.9c.058,1.222,0,13.053,0,13.173h4.38V19.995a2.9,2.9,0,0,1,.145-1.067,2.737,2.737,0,0,1,.788-1.1A2.248,2.248,0,0,1,22.673,17.326ZM9.1,14.179V27.352H13.48V14.179Zm2.218-6.35a2.564,2.564,0,0,0-1.8.653A2.2,2.2,0,0,0,8.841,10.1,2.226,2.226,0,0,0,9.5,11.717a2.459,2.459,0,0,0,1.761.664h.029a2.552,2.552,0,0,0,1.812-.664,2.206,2.206,0,0,0,.666-1.613,2.3,2.3,0,0,0-.673-1.622A2.489,2.489,0,0,0,11.32,7.829Z" fill="#fff"/>
  </g>
</svg>
