<svg xmlns="http://www.w3.org/2000/svg" xmlns:xlink="http://www.w3.org/1999/xlink" width="36.987" height="36.987" viewBox="0 0 36.987 36.987">
  <defs>
    <clipPath id="clip-path">
      <rect width="36.987" height="36.987" fill="none"/>
    </clipPath>
  </defs>
  <g id="Symbol_22_6" data-name="Symbol 22 – 6" clip-path="url(#clip-path)">
    <path id="Subtraction_4" data-name="Subtraction 4" d="M18.493,36.987a18.407,18.407,0,0,1-10.34-3.158,18.547,18.547,0,0,1-6.7-8.137A18.469,18.469,0,0,1,3.158,8.154a18.548,18.548,0,0,1,8.137-6.7A18.469,18.469,0,0,1,28.833,3.158a18.548,18.548,0,0,1,6.7,8.137,18.469,18.469,0,0,1-1.705,17.538,18.547,18.547,0,0,1-8.137,6.7A18.378,18.378,0,0,1,18.493,36.987ZM8.275,26.742h0a12.524,12.524,0,0,0,6.776,1.986,12.736,12.736,0,0,0,5.4-1.144,11.9,11.9,0,0,0,3.942-2.954,12.974,12.974,0,0,0,2.418-4.05,12.786,12.786,0,0,0,.822-4.43c0-.187,0-.379-.013-.571a8.923,8.923,0,0,0,2.206-2.288,8.829,8.829,0,0,1-2.539.7,4.425,4.425,0,0,0,1.944-2.445,8.832,8.832,0,0,1-2.807,1.072,4.424,4.424,0,0,0-7.533,4.032,12.446,12.446,0,0,1-5.116-1.375A12.608,12.608,0,0,1,11.6,13.851a12.671,12.671,0,0,1-1.827-1.825,4.425,4.425,0,0,0,1.368,5.9,4.416,4.416,0,0,1-2-.554c0,.019,0,.038,0,.056a4.423,4.423,0,0,0,3.546,4.334,4.41,4.41,0,0,1-1.165.155,4.459,4.459,0,0,1-.832-.079,4.42,4.42,0,0,0,4.129,3.07,8.923,8.923,0,0,1-6.544,1.83Z" fill="#fff"/>
  </g>
</svg>
