<svg xmlns="http://www.w3.org/2000/svg" xmlns:xlink="http://www.w3.org/1999/xlink" width="37.337" height="37.337" viewBox="0 0 37.337 37.337">
  <defs>
    <clipPath id="clip-path">
      <rect width="37.337" height="37.337" fill="none"/>
    </clipPath>
  </defs>
  <g id="youtube" clip-path="url(#clip-path)">
    <path id="Subtraction_10" data-name="Subtraction 10" d="M18.669,37.337A18.674,18.674,0,0,1,11.4,1.467a18.673,18.673,0,0,1,14.533,34.4A18.552,18.552,0,0,1,18.669,37.337ZM12.877,16.776A2.913,2.913,0,0,0,9.886,19.6v6.468a2.913,2.913,0,0,0,2.991,2.821h12.3a2.913,2.913,0,0,0,2.99-2.821V19.6a2.913,2.913,0,0,0-2.99-2.822ZM18.753,9.1a1.451,1.451,0,0,0-1.481,1.079,5.021,5.021,0,0,0-.144,1.354v1.6a6.4,6.4,0,0,0,.079,1.188,1.842,1.842,0,0,0,.265.675,1.134,1.134,0,0,0,.522.418,2.115,2.115,0,0,0,.818.137,1.733,1.733,0,0,0,.768-.162,1.326,1.326,0,0,0,.546-.5,1.923,1.923,0,0,0,.278-.732,8.308,8.308,0,0,0,.066-1.231V11.393a4.907,4.907,0,0,0-.071-.986,1.951,1.951,0,0,0-.262-.628,1.408,1.408,0,0,0-.544-.494A1.763,1.763,0,0,0,18.753,9.1Zm-6.118-2.14,1.68,3.968,0,4.617h1.337v-4.62l1.579-3.958H15.771l-.84,2.94L14.08,6.955Zm8.64,2.373v4.063c0,.511.008.86.025,1.038a1.743,1.743,0,0,0,.121.5.869.869,0,0,0,.306.387.889.889,0,0,0,.52.144.811.811,0,0,0,.486-.152,1.166,1.166,0,0,0,.357-.456l-.024.5h1.416V9.328H23.366v4.688a.465.465,0,0,1-.93,0V9.328Zm3.493,17.5c-.831,0-1.67-.648-1.67-2.095V22.933a4.077,4.077,0,0,1,.161-1.28,1.433,1.433,0,0,1,.534-.718,1.811,1.811,0,0,1,1.041-.309,1.3,1.3,0,0,1,1.409,1.011,13.448,13.448,0,0,1,.065,1.543V24H24.124v1.4a.519.519,0,0,0,.521.516h.187a.519.519,0,0,0,.521-.516v-.584c0-.027,0-.053,0-.077l.953-.005a1.829,1.829,0,0,1-.352,1.552A1.553,1.553,0,0,1,24.767,26.833Zm-.052-5.1a.567.567,0,0,0-.567.565l-.006.7h1.2l.014-.7a.567.567,0,0,0-.568-.565Zm-8.874,5.086a.9.9,0,0,1-.535-.155.986.986,0,0,1-.317-.81c0-.043-.007-.085-.01-.126-.011-.123-.009-.34-.006-.639,0-.153,0-.325,0-.514l-.005-3.605h1.264l.006,3.664c0,.191,0,.353-.007.482a1.84,1.84,0,0,0,.011.405c.084.255.22.308.32.308a.526.526,0,0,0,.428-.339A1.449,1.449,0,0,0,17,25.116c0-.134-.009-.3-.009-.509V20.969h1.27v5.8l-1.02,0,0-.751A1.678,1.678,0,0,1,15.841,26.818Zm5.483-.011a1.839,1.839,0,0,1-1.164-.59l-.095.484-1.044.015.007-7.77,1.27,0L20.291,21.2a1.722,1.722,0,0,1,1.027-.435c.6,0,1.01.541,1.01,1.347l0,3.029a2.027,2.027,0,0,1-.438,1.432A.78.78,0,0,1,21.324,26.807ZM20.83,21.5a.513.513,0,0,0-.555.456v3.4a.567.567,0,0,0,1.111,0v-3.4A.514.514,0,0,0,20.83,21.5ZM13.7,26.767H12.425V19.935l-1.268,0v-.992l4.062.007v1.009H13.7v6.812Zm5.1-12.225a.594.594,0,0,1-.563-.62V10.715a.565.565,0,1,1,1.125,0v3.207A.594.594,0,0,1,18.8,14.542Z" transform="translate(0 0)" fill="#fff"/>
  </g>
</svg>
